<svg id="visual" viewBox="0 0 480 300" width="480" height="300" xmlns="http://www.w3.org/2000/svg" xmlns:xlink="http://www.w3.org/1999/xlink" version="1.1"><rect x="0" y="0" width="480" height="300" fill="#1A1A1D"></rect><g transform="translate(242.09934065665288 132.42729864842272)"><path d="M59.3 -67C78.4 -54.7 96.3 -37.4 100.1 -17.4C103.9 2.6 93.5 25.3 80.9 46.3C68.3 67.4 53.5 86.8 31.1 102.3C8.7 117.8 -21.3 129.4 -41.8 119.8C-62.2 110.1 -73.1 79.3 -84.4 52.3C-95.7 25.3 -107.4 2.2 -104.7 -19.3C-101.9 -40.8 -84.7 -60.6 -64.9 -72.8C-45 -84.9 -22.5 -89.3 -1.2 -87.9C20.1 -86.5 40.3 -79.3 59.3 -67" fill="#C3073F"></path></g></svg>