<svg id="visual" viewBox="0 0 480 300" width="480" height="300" xmlns="http://www.w3.org/2000/svg" xmlns:xlink="http://www.w3.org/1999/xlink" version="1.1"><rect x="0" y="0" width="480" height="300" fill="#1A1A1D"></rect><g transform="translate(235.81691524216603 151.78929324202971)"><path d="M66.7 -82.2C87.5 -62 106.3 -42 113.5 -17.6C120.6 6.8 116.2 35.6 103.9 62.8C91.6 90 71.4 115.5 47.5 119.4C23.5 123.3 -4.3 105.7 -33 93.9C-61.8 82.1 -91.5 76 -102.8 58.4C-114 40.8 -106.7 11.6 -98.7 -14.6C-90.7 -40.8 -82 -64.1 -65.4 -85C-48.9 -105.9 -24.4 -124.4 -0.7 -123.5C22.9 -122.7 45.9 -102.3 66.7 -82.2" fill="#C3073F"></path></g></svg>