<svg id="visual" viewBox="0 0 480 300" width="480" height="300" xmlns="http://www.w3.org/2000/svg" xmlns:xlink="http://www.w3.org/1999/xlink" version="1.1"><rect x="0" y="0" width="480" height="300" fill="#1A1A1D"></rect><g transform="translate(247.03781935999038 150.0726181129381)"><path d="M77.5 -94.7C96.7 -76.2 106 -48.3 107.8 -21.4C109.7 5.5 104.2 31.2 93 56.5C81.8 81.9 64.8 106.7 41.9 114.9C19 123.1 -9.8 114.6 -31.2 100.5C-52.6 86.3 -66.6 66.4 -84.8 44.4C-102.9 22.3 -125.3 -1.9 -121.9 -21.6C-118.6 -41.3 -89.4 -56.6 -64.8 -74.1C-40.2 -91.5 -20.1 -111.3 4.5 -116.7C29.1 -122.1 58.3 -113.1 77.5 -94.7" fill="#C3073F"></path></g></svg>