<svg id="visual" viewBox="0 0 480 300" width="480" height="300" xmlns="http://www.w3.org/2000/svg" xmlns:xlink="http://www.w3.org/1999/xlink" version="1.1"><rect x="0" y="0" width="480" height="300" fill="#1A1A1D"></rect><g transform="translate(235.62392247327676 154.35639693316529)"><path d="M71.7 -90.1C90.2 -69.9 100.8 -44.7 109.1 -16.4C117.5 11.9 123.7 43.5 111.4 63.8C99 84.1 68.2 93.3 38.3 103.3C8.4 113.4 -20.4 124.4 -40.2 115.1C-59.9 105.8 -70.5 76.4 -82.7 50.2C-94.8 24.1 -108.5 1.3 -109.5 -23.9C-110.6 -49.1 -99 -76.6 -78.6 -96.5C-58.3 -116.5 -29.1 -128.7 -1.3 -127.2C26.6 -125.7 53.1 -110.3 71.7 -90.1" fill="#C3073F"></path></g></svg>