<svg id="visual" viewBox="0 0 480 300" width="480" height="300" xmlns="http://www.w3.org/2000/svg" xmlns:xlink="http://www.w3.org/1999/xlink" version="1.1"><rect x="0" y="0" width="480" height="300" fill="#1A1A1D"></rect><g transform="translate(257.22480085369995 145.71393285366608)"><path d="M63.8 -75.6C79.5 -62.8 87 -39.7 88.6 -17.6C90.2 4.6 85.8 25.8 76.7 46.9C67.6 68 53.8 89 34.9 95.7C16.1 102.4 -7.9 94.9 -28.8 84.8C-49.8 74.8 -67.8 62.1 -87.1 43.2C-106.4 24.3 -127.1 -0.9 -122.8 -21.1C-118.6 -41.3 -89.4 -56.6 -64.8 -67.9C-40.2 -79.2 -20.1 -86.6 2 -88.9C24 -91.3 48 -88.5 63.8 -75.6" fill="#C3073F"></path></g></svg>