<svg id="visual" viewBox="0 0 960 300" width="960" height="300" xmlns="http://www.w3.org/2000/svg" xmlns:xlink="http://www.w3.org/1999/xlink" version="1.1"><path d="M0 31L8.5 29.5C17 28 34 25 50.8 22C67.7 19 84.3 16 101.2 14.5C118 13 135 13 151.8 18.5C168.7 24 185.3 35 202.2 40C219 45 236 44 252.8 42C269.7 40 286.3 37 303.2 36.5C320 36 337 38 353.8 35.5C370.7 33 387.3 26 404.2 23C421 20 438 21 454.8 20C471.7 19 488.3 16 505.2 15.5C522 15 539 17 555.8 17C572.7 17 589.3 15 606.2 16.5C623 18 640 23 656.8 28C673.7 33 690.3 38 707.2 39C724 40 741 37 757.8 39C774.7 41 791.3 48 808.2 49.5C825 51 842 47 858.8 44C875.7 41 892.3 39 909.2 35C926 31 943 25 951.5 22L960 19L960 0L951.5 0C943 0 926 0 909.2 0C892.3 0 875.7 0 858.8 0C842 0 825 0 808.2 0C791.3 0 774.7 0 757.8 0C741 0 724 0 707.2 0C690.3 0 673.7 0 656.8 0C640 0 623 0 606.2 0C589.3 0 572.7 0 555.8 0C539 0 522 0 505.2 0C488.3 0 471.7 0 454.8 0C438 0 421 0 404.2 0C387.3 0 370.7 0 353.8 0C337 0 320 0 303.2 0C286.3 0 269.7 0 252.8 0C236 0 219 0 202.2 0C185.3 0 168.7 0 151.8 0C135 0 118 0 101.2 0C84.3 0 67.7 0 50.8 0C34 0 17 0 8.5 0L0 0Z" fill="#1a1a1d"></path><path d="M0 58L8.5 56C17 54 34 50 50.8 44C67.7 38 84.3 30 101.2 29.5C118 29 135 36 151.8 41C168.7 46 185.3 49 202.2 54.5C219 60 236 68 252.8 66C269.7 64 286.3 52 303.2 50C320 48 337 56 353.8 55C370.7 54 387.3 44 404.2 40C421 36 438 38 454.8 35.5C471.7 33 488.3 26 505.2 25C522 24 539 29 555.8 29.5C572.7 30 589.3 26 606.2 28.5C623 31 640 40 656.8 47C673.7 54 690.3 59 707.2 60C724 61 741 58 757.8 59C774.7 60 791.3 65 808.2 66C825 67 842 64 858.8 60.5C875.7 57 892.3 53 909.2 49C926 45 943 41 951.5 39L960 37L960 17L951.5 20C943 23 926 29 909.2 33C892.3 37 875.7 39 858.8 42C842 45 825 49 808.2 47.5C791.3 46 774.7 39 757.8 37C741 35 724 38 707.2 37C690.3 36 673.7 31 656.8 26C640 21 623 16 606.2 14.5C589.3 13 572.7 15 555.8 15C539 15 522 13 505.2 13.5C488.3 14 471.7 17 454.8 18C438 19 421 18 404.2 21C387.3 24 370.7 31 353.8 33.5C337 36 320 34 303.2 34.5C286.3 35 269.7 38 252.8 40C236 42 219 43 202.2 38C185.3 33 168.7 22 151.8 16.5C135 11 118 11 101.2 12.5C84.3 14 67.7 17 50.8 20C34 23 17 26 8.5 27.5L0 29Z" fill="#30243c"></path><path d="M0 85L8.5 82.5C17 80 34 75 50.8 67C67.7 59 84.3 48 101.2 49C118 50 135 63 151.8 68C168.7 73 185.3 70 202.2 71C219 72 236 77 252.8 77.5C269.7 78 286.3 74 303.2 73.5C320 73 337 76 353.8 71.5C370.7 67 387.3 55 404.2 50.5C421 46 438 49 454.8 51C471.7 53 488.3 54 505.2 58C522 62 539 69 555.8 68.5C572.7 68 589.3 60 606.2 62C623 64 640 76 656.8 82C673.7 88 690.3 88 707.2 90.5C724 93 741 98 757.8 100.5C774.7 103 791.3 103 808.2 102C825 101 842 99 858.8 99.5C875.7 100 892.3 103 909.2 94.5C926 86 943 66 951.5 56L960 46L960 35L951.5 37C943 39 926 43 909.2 47C892.3 51 875.7 55 858.8 58.5C842 62 825 65 808.2 64C791.3 63 774.7 58 757.8 57C741 56 724 59 707.2 58C690.3 57 673.7 52 656.8 45C640 38 623 29 606.2 26.5C589.3 24 572.7 28 555.8 27.5C539 27 522 22 505.2 23C488.3 24 471.7 31 454.8 33.5C438 36 421 34 404.2 38C387.3 42 370.7 52 353.8 53C337 54 320 46 303.2 48C286.3 50 269.7 62 252.8 64C236 66 219 58 202.2 52.5C185.3 47 168.7 44 151.8 39C135 34 118 27 101.2 27.5C84.3 28 67.7 36 50.8 42C34 48 17 52 8.5 54L0 56Z" fill="#582752"></path><path d="M0 157L8.5 148.5C17 140 34 123 50.8 111.5C67.7 100 84.3 94 101.2 97C118 100 135 112 151.8 117C168.7 122 185.3 120 202.2 119C219 118 236 118 252.8 114C269.7 110 286.3 102 303.2 106C320 110 337 126 353.8 131C370.7 136 387.3 130 404.2 123C421 116 438 108 454.8 107C471.7 106 488.3 112 505.2 126C522 140 539 162 555.8 155C572.7 148 589.3 112 606.2 108.5C623 105 640 134 656.8 139.5C673.7 145 690.3 127 707.2 122C724 117 741 125 757.8 127C774.7 129 791.3 125 808.2 122.5C825 120 842 119 858.8 127.5C875.7 136 892.3 154 909.2 147.5C926 141 943 110 951.5 94.5L960 79L960 44L951.5 54C943 64 926 84 909.2 92.5C892.3 101 875.7 98 858.8 97.5C842 97 825 99 808.2 100C791.3 101 774.7 101 757.8 98.5C741 96 724 91 707.2 88.5C690.3 86 673.7 86 656.8 80C640 74 623 62 606.2 60C589.3 58 572.7 66 555.8 66.5C539 67 522 60 505.2 56C488.3 52 471.7 51 454.8 49C438 47 421 44 404.2 48.5C387.3 53 370.7 65 353.8 69.5C337 74 320 71 303.2 71.5C286.3 72 269.7 76 252.8 75.5C236 75 219 70 202.2 69C185.3 68 168.7 71 151.8 66C135 61 118 48 101.2 47C84.3 46 67.7 57 50.8 65C34 73 17 78 8.5 80.5L0 83Z" fill="#871e56"></path><path d="M0 187L8.5 175.5C17 164 34 141 50.8 129.5C67.7 118 84.3 118 101.2 124C118 130 135 142 151.8 144.5C168.7 147 185.3 140 202.2 135.5C219 131 236 129 252.8 127C269.7 125 286.3 123 303.2 130.5C320 138 337 155 353.8 160.5C370.7 166 387.3 160 404.2 150.5C421 141 438 128 454.8 123C471.7 118 488.3 121 505.2 136.5C522 152 539 180 555.8 176C572.7 172 589.3 136 606.2 132C623 128 640 156 656.8 160C673.7 164 690.3 144 707.2 136.5C724 129 741 134 757.8 135.5C774.7 137 791.3 135 808.2 135.5C825 136 842 139 858.8 146.5C875.7 154 892.3 166 909.2 158.5C926 151 943 124 951.5 110.5L960 97L960 77L951.5 92.5C943 108 926 139 909.2 145.5C892.3 152 875.7 134 858.8 125.5C842 117 825 118 808.2 120.5C791.3 123 774.7 127 757.8 125C741 123 724 115 707.2 120C690.3 125 673.7 143 656.8 137.5C640 132 623 103 606.2 106.5C589.3 110 572.7 146 555.8 153C539 160 522 138 505.2 124C488.3 110 471.7 104 454.8 105C438 106 421 114 404.2 121C387.3 128 370.7 134 353.8 129C337 124 320 108 303.2 104C286.3 100 269.7 108 252.8 112C236 116 219 116 202.2 117C185.3 118 168.7 120 151.8 115C135 110 118 98 101.2 95C84.3 92 67.7 98 50.8 109.5C34 121 17 138 8.5 146.5L0 155Z" fill="#b40949"></path><path d="M0 193L8.5 182.5C17 172 34 151 50.8 140C67.7 129 84.3 128 101.2 133.5C118 139 135 151 151.8 155.5C168.7 160 185.3 157 202.2 154C219 151 236 148 252.8 143.5C269.7 139 286.3 133 303.2 140.5C320 148 337 169 353.8 175.5C370.7 182 387.3 174 404.2 163C421 152 438 138 454.8 134C471.7 130 488.3 136 505.2 152C522 168 539 194 555.8 190C572.7 186 589.3 152 606.2 148.5C623 145 640 172 656.8 176C673.7 180 690.3 161 707.2 152.5C724 144 741 146 757.8 146C774.7 146 791.3 144 808.2 146.5C825 149 842 156 858.8 164C875.7 172 892.3 181 909.2 173.5C926 166 943 142 951.5 130L960 118L960 95L951.5 108.5C943 122 926 149 909.2 156.5C892.3 164 875.7 152 858.8 144.5C842 137 825 134 808.2 133.5C791.3 133 774.7 135 757.8 133.5C741 132 724 127 707.2 134.5C690.3 142 673.7 162 656.8 158C640 154 623 126 606.2 130C589.3 134 572.7 170 555.8 174C539 178 522 150 505.2 134.5C488.3 119 471.7 116 454.8 121C438 126 421 139 404.2 148.5C387.3 158 370.7 164 353.8 158.5C337 153 320 136 303.2 128.5C286.3 121 269.7 123 252.8 125C236 127 219 129 202.2 133.5C185.3 138 168.7 145 151.8 142.5C135 140 118 128 101.2 122C84.3 116 67.7 116 50.8 127.5C34 139 17 162 8.5 173.5L0 185Z" fill="#c3073f"></path><path d="M0 196L8.5 188.5C17 181 34 166 50.8 157C67.7 148 84.3 145 101.2 149C118 153 135 164 151.8 169C168.7 174 185.3 173 202.2 170.5C219 168 236 164 252.8 160C269.7 156 286.3 152 303.2 159C320 166 337 184 353.8 188.5C370.7 193 387.3 184 404.2 174C421 164 438 153 454.8 150.5C471.7 148 488.3 154 505.2 168C522 182 539 204 555.8 199C572.7 194 589.3 162 606.2 160.5C623 159 640 188 656.8 191C673.7 194 690.3 171 707.2 163C724 155 741 162 757.8 163.5C774.7 165 791.3 161 808.2 162C825 163 842 169 858.8 175.5C875.7 182 892.3 189 909.2 181C926 173 943 150 951.5 138.5L960 127L960 116L951.5 128C943 140 926 164 909.2 171.5C892.3 179 875.7 170 858.8 162C842 154 825 147 808.2 144.5C791.3 142 774.7 144 757.8 144C741 144 724 142 707.2 150.5C690.3 159 673.7 178 656.8 174C640 170 623 143 606.2 146.5C589.3 150 572.7 184 555.8 188C539 192 522 166 505.2 150C488.3 134 471.7 128 454.8 132C438 136 421 150 404.2 161C387.3 172 370.7 180 353.8 173.5C337 167 320 146 303.2 138.5C286.3 131 269.7 137 252.8 141.5C236 146 219 149 202.2 152C185.3 155 168.7 158 151.8 153.5C135 149 118 137 101.2 131.5C84.3 126 67.7 127 50.8 138C34 149 17 170 8.5 180.5L0 191Z" fill="#c3073f"></path><path d="M0 205L8.5 198C17 191 34 177 50.8 170.5C67.7 164 84.3 165 101.2 169.5C118 174 135 182 151.8 188.5C168.7 195 185.3 200 202.2 199.5C219 199 236 193 252.8 186C269.7 179 286.3 171 303.2 174.5C320 178 337 193 353.8 201.5C370.7 210 387.3 212 404.2 206.5C421 201 438 188 454.8 185.5C471.7 183 488.3 191 505.2 200.5C522 210 539 221 555.8 215.5C572.7 210 589.3 188 606.2 188.5C623 189 640 212 656.8 215C673.7 218 690.3 201 707.2 193.5C724 186 741 188 757.8 187.5C774.7 187 791.3 184 808.2 187C825 190 842 199 858.8 203.5C875.7 208 892.3 208 909.2 200C926 192 943 176 951.5 168L960 160L960 125L951.5 136.5C943 148 926 171 909.2 179C892.3 187 875.7 180 858.8 173.5C842 167 825 161 808.2 160C791.3 159 774.7 163 757.8 161.5C741 160 724 153 707.2 161C690.3 169 673.7 192 656.8 189C640 186 623 157 606.2 158.5C589.3 160 572.7 192 555.8 197C539 202 522 180 505.2 166C488.3 152 471.7 146 454.8 148.5C438 151 421 162 404.2 172C387.3 182 370.7 191 353.8 186.5C337 182 320 164 303.2 157C286.3 150 269.7 154 252.8 158C236 162 219 166 202.2 168.5C185.3 171 168.7 172 151.8 167C135 162 118 151 101.2 147C84.3 143 67.7 146 50.8 155C34 164 17 179 8.5 186.5L0 194Z" fill="#b40949"></path><path d="M0 253L8.5 255.5C17 258 34 263 50.8 265C67.7 267 84.3 266 101.2 265.5C118 265 135 265 151.8 265C168.7 265 185.3 265 202.2 265C219 265 236 265 252.8 265.5C269.7 266 286.3 267 303.2 269C320 271 337 274 353.8 273.5C370.7 273 387.3 269 404.2 267.5C421 266 438 267 454.8 266.5C471.7 266 488.3 264 505.2 265C522 266 539 270 555.8 269.5C572.7 269 589.3 264 606.2 262C623 260 640 261 656.8 263.5C673.7 266 690.3 270 707.2 269.5C724 269 741 264 757.8 259C774.7 254 791.3 249 808.2 251.5C825 254 842 264 858.8 267.5C875.7 271 892.3 268 909.2 265C926 262 943 259 951.5 257.5L960 256L960 158L951.5 166C943 174 926 190 909.2 198C892.3 206 875.7 206 858.8 201.5C842 197 825 188 808.2 185C791.3 182 774.7 185 757.8 185.5C741 186 724 184 707.2 191.5C690.3 199 673.7 216 656.8 213C640 210 623 187 606.2 186.5C589.3 186 572.7 208 555.8 213.5C539 219 522 208 505.2 198.5C488.3 189 471.7 181 454.8 183.5C438 186 421 199 404.2 204.5C387.3 210 370.7 208 353.8 199.5C337 191 320 176 303.2 172.5C286.3 169 269.7 177 252.8 184C236 191 219 197 202.2 197.5C185.3 198 168.7 193 151.8 186.5C135 180 118 172 101.2 167.5C84.3 163 67.7 162 50.8 168.5C34 175 17 189 8.5 196L0 203Z" fill="#871e56"></path><path d="M0 256L8.5 259.5C17 263 34 270 50.8 273.5C67.7 277 84.3 277 101.2 276C118 275 135 273 151.8 271.5C168.7 270 185.3 269 202.2 268.5C219 268 236 268 252.8 269C269.7 270 286.3 272 303.2 274C320 276 337 278 353.8 277.5C370.7 277 387.3 274 404.2 275C421 276 438 281 454.8 282.5C471.7 284 488.3 282 505.2 280.5C522 279 539 278 555.8 277.5C572.7 277 589.3 277 606.2 276C623 275 640 273 656.8 274C673.7 275 690.3 279 707.2 278C724 277 741 271 757.8 267.5C774.7 264 791.3 263 808.2 266C825 269 842 276 858.8 278C875.7 280 892.3 277 909.2 273C926 269 943 264 951.5 261.5L960 259L960 254L951.5 255.5C943 257 926 260 909.2 263C892.3 266 875.7 269 858.8 265.5C842 262 825 252 808.2 249.5C791.3 247 774.7 252 757.8 257C741 262 724 267 707.2 267.5C690.3 268 673.7 264 656.8 261.5C640 259 623 258 606.2 260C589.3 262 572.7 267 555.8 267.5C539 268 522 264 505.2 263C488.3 262 471.7 264 454.8 264.5C438 265 421 264 404.2 265.5C387.3 267 370.7 271 353.8 271.5C337 272 320 269 303.2 267C286.3 265 269.7 264 252.8 263.5C236 263 219 263 202.2 263C185.3 263 168.7 263 151.8 263C135 263 118 263 101.2 263.5C84.3 264 67.7 265 50.8 263C34 261 17 256 8.5 253.5L0 251Z" fill="#582752"></path><path d="M0 274L8.5 276.5C17 279 34 284 50.8 287C67.7 290 84.3 291 101.2 291C118 291 135 290 151.8 287C168.7 284 185.3 279 202.2 279.5C219 280 236 286 252.8 286.5C269.7 287 286.3 282 303.2 282.5C320 283 337 289 353.8 290C370.7 291 387.3 287 404.2 286.5C421 286 438 289 454.8 289.5C471.7 290 488.3 288 505.2 286.5C522 285 539 284 555.8 286C572.7 288 589.3 293 606.2 293C623 293 640 288 656.8 287C673.7 286 690.3 289 707.2 289C724 289 741 286 757.8 284.5C774.7 283 791.3 283 808.2 284C825 285 842 287 858.8 287.5C875.7 288 892.3 287 909.2 284.5C926 282 943 278 951.5 276L960 274L960 257L951.5 259.5C943 262 926 267 909.2 271C892.3 275 875.7 278 858.8 276C842 274 825 267 808.2 264C791.3 261 774.7 262 757.8 265.5C741 269 724 275 707.2 276C690.3 277 673.7 273 656.8 272C640 271 623 273 606.2 274C589.3 275 572.7 275 555.8 275.5C539 276 522 277 505.2 278.5C488.3 280 471.7 282 454.8 280.5C438 279 421 274 404.2 273C387.3 272 370.7 275 353.8 275.5C337 276 320 274 303.2 272C286.3 270 269.7 268 252.8 267C236 266 219 266 202.2 266.5C185.3 267 168.7 268 151.8 269.5C135 271 118 273 101.2 274C84.3 275 67.7 275 50.8 271.5C34 268 17 261 8.5 257.5L0 254Z" fill="#30243c"></path><path d="M0 301L8.5 301C17 301 34 301 50.8 301C67.7 301 84.3 301 101.2 301C118 301 135 301 151.8 301C168.7 301 185.3 301 202.2 301C219 301 236 301 252.8 301C269.7 301 286.3 301 303.2 301C320 301 337 301 353.8 301C370.7 301 387.3 301 404.2 301C421 301 438 301 454.8 301C471.7 301 488.3 301 505.2 301C522 301 539 301 555.8 301C572.7 301 589.3 301 606.2 301C623 301 640 301 656.8 301C673.7 301 690.3 301 707.2 301C724 301 741 301 757.8 301C774.7 301 791.3 301 808.2 301C825 301 842 301 858.8 301C875.7 301 892.3 301 909.2 301C926 301 943 301 951.5 301L960 301L960 272L951.5 274C943 276 926 280 909.2 282.5C892.3 285 875.7 286 858.8 285.5C842 285 825 283 808.2 282C791.3 281 774.7 281 757.8 282.5C741 284 724 287 707.2 287C690.3 287 673.7 284 656.8 285C640 286 623 291 606.2 291C589.3 291 572.7 286 555.8 284C539 282 522 283 505.2 284.5C488.3 286 471.7 288 454.8 287.5C438 287 421 284 404.2 284.5C387.3 285 370.7 289 353.8 288C337 287 320 281 303.2 280.5C286.3 280 269.7 285 252.8 284.5C236 284 219 278 202.2 277.5C185.3 277 168.7 282 151.8 285C135 288 118 289 101.2 289C84.3 289 67.7 288 50.8 285C34 282 17 277 8.5 274.5L0 272Z" fill="#1a1a1d"></path></svg>