<svg id="visual" viewBox="0 0 960 300" width="960" height="300" xmlns="http://www.w3.org/2000/svg" xmlns:xlink="http://www.w3.org/1999/xlink" version="1.1"><path d="M0 43L16 39.5C32 36 64 29 96 32C128 35 160 48 192 59.5C224 71 256 81 288 79C320 77 352 63 384 55.5C416 48 448 47 480 54.5C512 62 544 78 576 76.5C608 75 640 56 672 51.5C704 47 736 57 768 70C800 83 832 99 864 100.5C896 102 928 89 944 82.5L960 76L960 0L944 0C928 0 896 0 864 0C832 0 800 0 768 0C736 0 704 0 672 0C640 0 608 0 576 0C544 0 512 0 480 0C448 0 416 0 384 0C352 0 320 0 288 0C256 0 224 0 192 0C160 0 128 0 96 0C64 0 32 0 16 0L0 0Z" fill="#1a1a1d"></path><path d="M0 49L16 45.5C32 42 64 35 96 40C128 45 160 62 192 73C224 84 256 89 288 87C320 85 352 76 384 69C416 62 448 57 480 65.5C512 74 544 96 576 97C608 98 640 78 672 69.5C704 61 736 64 768 77C800 90 832 113 864 118.5C896 124 928 112 944 106L960 100L960 74L944 80.5C928 87 896 100 864 98.5C832 97 800 81 768 68C736 55 704 45 672 49.5C640 54 608 73 576 74.5C544 76 512 60 480 52.5C448 45 416 46 384 53.5C352 61 320 75 288 77C256 79 224 69 192 57.5C160 46 128 33 96 30C64 27 32 34 16 37.5L0 41Z" fill="#30243c"></path><path d="M0 70L16 66C32 62 64 54 96 58C128 62 160 78 192 89C224 100 256 106 288 103C320 100 352 88 384 80.5C416 73 448 70 480 77C512 84 544 101 576 99.5C608 98 640 78 672 70.5C704 63 736 68 768 84.5C800 101 832 129 864 134C896 139 928 121 944 112L960 103L960 98L944 104C928 110 896 122 864 116.5C832 111 800 88 768 75C736 62 704 59 672 67.5C640 76 608 96 576 95C544 94 512 72 480 63.5C448 55 416 60 384 67C352 74 320 83 288 85C256 87 224 82 192 71C160 60 128 43 96 38C64 33 32 40 16 43.5L0 47Z" fill="#582752"></path><path d="M0 70L16 75.5C32 81 64 92 96 102.5C128 113 160 123 192 131.5C224 140 256 147 288 143.5C320 140 352 126 384 117C416 108 448 104 480 111C512 118 544 136 576 136C608 136 640 118 672 110C704 102 736 104 768 118.5C800 133 832 160 864 160.5C896 161 928 135 944 122L960 109L960 101L944 110C928 119 896 137 864 132C832 127 800 99 768 82.5C736 66 704 61 672 68.5C640 76 608 96 576 97.5C544 99 512 82 480 75C448 68 416 71 384 78.5C352 86 320 98 288 101C256 104 224 98 192 87C160 76 128 60 96 56C64 52 32 60 16 64L0 68Z" fill="#871e56"></path><path d="M0 103L16 120.5C32 138 64 173 96 190C128 207 160 206 192 203C224 200 256 195 288 190.5C320 186 352 182 384 177C416 172 448 166 480 163.5C512 161 544 162 576 160.5C608 159 640 155 672 149C704 143 736 135 768 145C800 155 832 183 864 187C896 191 928 171 944 161L960 151L960 107L944 120C928 133 896 159 864 158.5C832 158 800 131 768 116.5C736 102 704 100 672 108C640 116 608 134 576 134C544 134 512 116 480 109C448 102 416 106 384 115C352 124 320 138 288 141.5C256 145 224 138 192 129.5C160 121 128 111 96 100.5C64 90 32 79 16 73.5L0 68Z" fill="#b40949"></path><path d="M0 136L16 149C32 162 64 188 96 202C128 216 160 218 192 216.5C224 215 256 210 288 209C320 208 352 211 384 205C416 199 448 184 480 182C512 180 544 191 576 191.5C608 192 640 182 672 176C704 170 736 168 768 177C800 186 832 206 864 205.5C896 205 928 184 944 173.5L960 163L960 149L944 159C928 169 896 189 864 185C832 181 800 153 768 143C736 133 704 141 672 147C640 153 608 157 576 158.5C544 160 512 159 480 161.5C448 164 416 170 384 175C352 180 320 184 288 188.5C256 193 224 198 192 201C160 204 128 205 96 188C64 171 32 136 16 118.5L0 101Z" fill="#c3073f"></path><path d="M0 193L16 198.5C32 204 64 215 96 221.5C128 228 160 230 192 227.5C224 225 256 218 288 218.5C320 219 352 227 384 228C416 229 448 223 480 220C512 217 544 217 576 212.5C608 208 640 199 672 201.5C704 204 736 218 768 230C800 242 832 252 864 249.5C896 247 928 232 944 224.5L960 217L960 161L944 171.5C928 182 896 203 864 203.5C832 204 800 184 768 175C736 166 704 168 672 174C640 180 608 190 576 189.5C544 189 512 178 480 180C448 182 416 197 384 203C352 209 320 206 288 207C256 208 224 213 192 214.5C160 216 128 214 96 200C64 186 32 160 16 147L0 134Z" fill="#c3073f"></path><path d="M0 205L16 209.5C32 214 64 223 96 229C128 235 160 238 192 236C224 234 256 227 288 226C320 225 352 230 384 233C416 236 448 237 480 235.5C512 234 544 230 576 224.5C608 219 640 212 672 215.5C704 219 736 233 768 244C800 255 832 263 864 261C896 259 928 247 944 241L960 235L960 215L944 222.5C928 230 896 245 864 247.5C832 250 800 240 768 228C736 216 704 202 672 199.5C640 197 608 206 576 210.5C544 215 512 215 480 218C448 221 416 227 384 226C352 225 320 217 288 216.5C256 216 224 223 192 225.5C160 228 128 226 96 219.5C64 213 32 202 16 196.5L0 191Z" fill="#b40949"></path><path d="M0 235L16 238C32 241 64 247 96 252C128 257 160 261 192 258.5C224 256 256 247 288 244C320 241 352 244 384 250.5C416 257 448 267 480 269C512 271 544 265 576 259.5C608 254 640 249 672 248.5C704 248 736 252 768 257.5C800 263 832 270 864 270.5C896 271 928 265 944 262L960 259L960 233L944 239C928 245 896 257 864 259C832 261 800 253 768 242C736 231 704 217 672 213.5C640 210 608 217 576 222.5C544 228 512 232 480 233.5C448 235 416 234 384 231C352 228 320 223 288 224C256 225 224 232 192 234C160 236 128 233 96 227C64 221 32 212 16 207.5L0 203Z" fill="#871e56"></path><path d="M0 250L16 252C32 254 64 258 96 263.5C128 269 160 276 192 276.5C224 277 256 271 288 267.5C320 264 352 263 384 266C416 269 448 276 480 275.5C512 275 544 267 576 265.5C608 264 640 269 672 268.5C704 268 736 262 768 263.5C800 265 832 274 864 276C896 278 928 273 944 270.5L960 268L960 257L944 260C928 263 896 269 864 268.5C832 268 800 261 768 255.5C736 250 704 246 672 246.5C640 247 608 252 576 257.5C544 263 512 269 480 267C448 265 416 255 384 248.5C352 242 320 239 288 242C256 245 224 254 192 256.5C160 259 128 255 96 250C64 245 32 239 16 236L0 233Z" fill="#582752"></path><path d="M0 271L16 274C32 277 64 283 96 285C128 287 160 285 192 283.5C224 282 256 281 288 278.5C320 276 352 272 384 273.5C416 275 448 282 480 285C512 288 544 287 576 285.5C608 284 640 282 672 281.5C704 281 736 282 768 285C800 288 832 293 864 291C896 289 928 280 944 275.5L960 271L960 266L944 268.5C928 271 896 276 864 274C832 272 800 263 768 261.5C736 260 704 266 672 266.5C640 267 608 262 576 263.5C544 265 512 273 480 273.5C448 274 416 267 384 264C352 261 320 262 288 265.5C256 269 224 275 192 274.5C160 274 128 267 96 261.5C64 256 32 252 16 250L0 248Z" fill="#30243c"></path><path d="M0 301L16 301C32 301 64 301 96 301C128 301 160 301 192 301C224 301 256 301 288 301C320 301 352 301 384 301C416 301 448 301 480 301C512 301 544 301 576 301C608 301 640 301 672 301C704 301 736 301 768 301C800 301 832 301 864 301C896 301 928 301 944 301L960 301L960 269L944 273.5C928 278 896 287 864 289C832 291 800 286 768 283C736 280 704 279 672 279.5C640 280 608 282 576 283.5C544 285 512 286 480 283C448 280 416 273 384 271.5C352 270 320 274 288 276.5C256 279 224 280 192 281.5C160 283 128 285 96 283C64 281 32 275 16 272L0 269Z" fill="#1a1a1d"></path></svg>