<svg id="visual" viewBox="0 0 960 300" width="960" height="300" xmlns="http://www.w3.org/2000/svg" xmlns:xlink="http://www.w3.org/1999/xlink" version="1.1"><path d="M0 10L8.5 12.5C17 15 34 20 50.8 22C67.7 24 84.3 23 101.2 21.5C118 20 135 18 151.8 18C168.7 18 185.3 20 202.2 20.5C219 21 236 20 252.8 17.5C269.7 15 286.3 11 303.2 15C320 19 337 31 353.8 32C370.7 33 387.3 23 404.2 19.5C421 16 438 19 454.8 24.5C471.7 30 488.3 38 505.2 35.5C522 33 539 20 555.8 15.5C572.7 11 589.3 15 606.2 22.5C623 30 640 41 656.8 41.5C673.7 42 690.3 32 707.2 30C724 28 741 34 757.8 34.5C774.7 35 791.3 30 808.2 28C825 26 842 27 858.8 29C875.7 31 892.3 34 909.2 36C926 38 943 39 951.5 39.5L960 40L960 0L951.5 0C943 0 926 0 909.2 0C892.3 0 875.7 0 858.8 0C842 0 825 0 808.2 0C791.3 0 774.7 0 757.8 0C741 0 724 0 707.2 0C690.3 0 673.7 0 656.8 0C640 0 623 0 606.2 0C589.3 0 572.7 0 555.8 0C539 0 522 0 505.2 0C488.3 0 471.7 0 454.8 0C438 0 421 0 404.2 0C387.3 0 370.7 0 353.8 0C337 0 320 0 303.2 0C286.3 0 269.7 0 252.8 0C236 0 219 0 202.2 0C185.3 0 168.7 0 151.8 0C135 0 118 0 101.2 0C84.3 0 67.7 0 50.8 0C34 0 17 0 8.5 0L0 0Z" fill="#1a1a1d"></path><path d="M0 25L8.5 31C17 37 34 49 50.8 53C67.7 57 84.3 53 101.2 46C118 39 135 29 151.8 32.5C168.7 36 185.3 53 202.2 55C219 57 236 44 252.8 38.5C269.7 33 286.3 35 303.2 44C320 53 337 69 353.8 68C370.7 67 387.3 49 404.2 39C421 29 438 27 454.8 32.5C471.7 38 488.3 51 505.2 49.5C522 48 539 32 555.8 26.5C572.7 21 589.3 26 606.2 39C623 52 640 73 656.8 78C673.7 83 690.3 72 707.2 67.5C724 63 741 65 757.8 60.5C774.7 56 791.3 45 808.2 41.5C825 38 842 42 858.8 46.5C875.7 51 892.3 56 909.2 57.5C926 59 943 57 951.5 56L960 55L960 38L951.5 37.5C943 37 926 36 909.2 34C892.3 32 875.7 29 858.8 27C842 25 825 24 808.2 26C791.3 28 774.7 33 757.8 32.5C741 32 724 26 707.2 28C690.3 30 673.7 40 656.8 39.5C640 39 623 28 606.2 20.5C589.3 13 572.7 9 555.8 13.5C539 18 522 31 505.2 33.5C488.3 36 471.7 28 454.8 22.5C438 17 421 14 404.2 17.5C387.3 21 370.7 31 353.8 30C337 29 320 17 303.2 13C286.3 9 269.7 13 252.8 15.5C236 18 219 19 202.2 18.5C185.3 18 168.7 16 151.8 16C135 16 118 18 101.2 19.5C84.3 21 67.7 22 50.8 20C34 18 17 13 8.5 10.5L0 8Z" fill="#30243c"></path><path d="M0 40L8.5 47C17 54 34 68 50.8 71.5C67.7 75 84.3 68 101.2 60.5C118 53 135 45 151.8 47.5C168.7 50 185.3 63 202.2 65.5C219 68 236 60 252.8 57.5C269.7 55 286.3 58 303.2 66.5C320 75 337 89 353.8 87.5C370.7 86 387.3 69 404.2 59C421 49 438 46 454.8 49.5C471.7 53 488.3 63 505.2 62C522 61 539 49 555.8 43C572.7 37 589.3 37 606.2 50.5C623 64 640 91 656.8 96C673.7 101 690.3 84 707.2 78.5C724 73 741 79 757.8 76C774.7 73 791.3 61 808.2 57C825 53 842 57 858.8 60.5C875.7 64 892.3 67 909.2 71C926 75 943 80 951.5 82.5L960 85L960 53L951.5 54C943 55 926 57 909.2 55.5C892.3 54 875.7 49 858.8 44.5C842 40 825 36 808.2 39.5C791.3 43 774.7 54 757.8 58.5C741 63 724 61 707.2 65.5C690.3 70 673.7 81 656.8 76C640 71 623 50 606.2 37C589.3 24 572.7 19 555.8 24.5C539 30 522 46 505.2 47.5C488.3 49 471.7 36 454.8 30.5C438 25 421 27 404.2 37C387.3 47 370.7 65 353.8 66C337 67 320 51 303.2 42C286.3 33 269.7 31 252.8 36.5C236 42 219 55 202.2 53C185.3 51 168.7 34 151.8 30.5C135 27 118 37 101.2 44C84.3 51 67.7 55 50.8 51C34 47 17 35 8.5 29L0 23Z" fill="#582752"></path><path d="M0 67L8.5 73.5C17 80 34 93 50.8 95.5C67.7 98 84.3 90 101.2 80C118 70 135 58 151.8 60.5C168.7 63 185.3 80 202.2 81.5C219 83 236 69 252.8 65.5C269.7 62 286.3 69 303.2 79.5C320 90 337 104 353.8 103C370.7 102 387.3 86 404.2 74C421 62 438 54 454.8 59.5C471.7 65 488.3 84 505.2 84C522 84 539 65 555.8 55.5C572.7 46 589.3 46 606.2 60C623 74 640 102 656.8 108.5C673.7 115 690.3 100 707.2 96C724 92 741 99 757.8 94.5C774.7 90 791.3 74 808.2 71.5C825 69 842 80 858.8 87C875.7 94 892.3 97 909.2 98C926 99 943 98 951.5 97.5L960 97L960 83L951.5 80.5C943 78 926 73 909.2 69C892.3 65 875.7 62 858.8 58.5C842 55 825 51 808.2 55C791.3 59 774.7 71 757.8 74C741 77 724 71 707.2 76.5C690.3 82 673.7 99 656.8 94C640 89 623 62 606.2 48.5C589.3 35 572.7 35 555.8 41C539 47 522 59 505.2 60C488.3 61 471.7 51 454.8 47.5C438 44 421 47 404.2 57C387.3 67 370.7 84 353.8 85.5C337 87 320 73 303.2 64.5C286.3 56 269.7 53 252.8 55.5C236 58 219 66 202.2 63.5C185.3 61 168.7 48 151.8 45.5C135 43 118 51 101.2 58.5C84.3 66 67.7 73 50.8 69.5C34 66 17 52 8.5 45L0 38Z" fill="#871e56"></path><path d="M0 67L8.5 76C17 85 34 103 50.8 105.5C67.7 108 84.3 95 101.2 85C118 75 135 68 151.8 71C168.7 74 185.3 87 202.2 86.5C219 86 236 72 252.8 70.5C269.7 69 286.3 80 303.2 92.5C320 105 337 119 353.8 116C370.7 113 387.3 93 404.2 79.5C421 66 438 59 454.8 67C471.7 75 488.3 98 505.2 101C522 104 539 87 555.8 76.5C572.7 66 589.3 62 606.2 72.5C623 83 640 108 656.8 115.5C673.7 123 690.3 113 707.2 112.5C724 112 741 121 757.8 113.5C774.7 106 791.3 82 808.2 79.5C825 77 842 96 858.8 106.5C875.7 117 892.3 119 909.2 118C926 117 943 113 951.5 111L960 109L960 95L951.5 95.5C943 96 926 97 909.2 96C892.3 95 875.7 92 858.8 85C842 78 825 67 808.2 69.5C791.3 72 774.7 88 757.8 92.5C741 97 724 90 707.2 94C690.3 98 673.7 113 656.8 106.5C640 100 623 72 606.2 58C589.3 44 572.7 44 555.8 53.5C539 63 522 82 505.2 82C488.3 82 471.7 63 454.8 57.5C438 52 421 60 404.2 72C387.3 84 370.7 100 353.8 101C337 102 320 88 303.2 77.5C286.3 67 269.7 60 252.8 63.5C236 67 219 81 202.2 79.5C185.3 78 168.7 61 151.8 58.5C135 56 118 68 101.2 78C84.3 88 67.7 96 50.8 93.5C34 91 17 78 8.5 71.5L0 65Z" fill="#b40949"></path><path d="M0 151L8.5 153C17 155 34 159 50.8 169C67.7 179 84.3 195 101.2 184.5C118 174 135 137 151.8 127.5C168.7 118 185.3 136 202.2 140.5C219 145 236 136 252.8 129.5C269.7 123 286.3 119 303.2 129.5C320 140 337 165 353.8 173C370.7 181 387.3 172 404.2 175C421 178 438 193 454.8 199C471.7 205 488.3 202 505.2 196.5C522 191 539 183 555.8 178C572.7 173 589.3 171 606.2 168.5C623 166 640 163 656.8 161C673.7 159 690.3 158 707.2 157.5C724 157 741 157 757.8 147.5C774.7 138 791.3 119 808.2 119.5C825 120 842 140 858.8 145C875.7 150 892.3 140 909.2 145.5C926 151 943 172 951.5 182.5L960 193L960 107L951.5 109C943 111 926 115 909.2 116C892.3 117 875.7 115 858.8 104.5C842 94 825 75 808.2 77.5C791.3 80 774.7 104 757.8 111.5C741 119 724 110 707.2 110.5C690.3 111 673.7 121 656.8 113.5C640 106 623 81 606.2 70.5C589.3 60 572.7 64 555.8 74.5C539 85 522 102 505.2 99C488.3 96 471.7 73 454.8 65C438 57 421 64 404.2 77.5C387.3 91 370.7 111 353.8 114C337 117 320 103 303.2 90.5C286.3 78 269.7 67 252.8 68.5C236 70 219 84 202.2 84.5C185.3 85 168.7 72 151.8 69C135 66 118 73 101.2 83C84.3 93 67.7 106 50.8 103.5C34 101 17 83 8.5 74L0 65Z" fill="#c3073f"></path><path d="M0 163L8.5 167C17 171 34 179 50.8 187.5C67.7 196 84.3 205 101.2 195C118 185 135 156 151.8 148C168.7 140 185.3 153 202.2 158C219 163 236 160 252.8 154C269.7 148 286.3 139 303.2 146.5C320 154 337 178 353.8 188.5C370.7 199 387.3 196 404.2 201C421 206 438 219 454.8 225C471.7 231 488.3 230 505.2 222C522 214 539 199 555.8 190.5C572.7 182 589.3 180 606.2 176.5C623 173 640 168 656.8 169C673.7 170 690.3 177 707.2 179C724 181 741 178 757.8 168C774.7 158 791.3 141 808.2 139C825 137 842 150 858.8 153C875.7 156 892.3 149 909.2 155.5C926 162 943 182 951.5 192L960 202L960 191L951.5 180.5C943 170 926 149 909.2 143.5C892.3 138 875.7 148 858.8 143C842 138 825 118 808.2 117.5C791.3 117 774.7 136 757.8 145.5C741 155 724 155 707.2 155.5C690.3 156 673.7 157 656.8 159C640 161 623 164 606.2 166.5C589.3 169 572.7 171 555.8 176C539 181 522 189 505.2 194.5C488.3 200 471.7 203 454.8 197C438 191 421 176 404.2 173C387.3 170 370.7 179 353.8 171C337 163 320 138 303.2 127.5C286.3 117 269.7 121 252.8 127.5C236 134 219 143 202.2 138.5C185.3 134 168.7 116 151.8 125.5C135 135 118 172 101.2 182.5C84.3 193 67.7 177 50.8 167C34 157 17 153 8.5 151L0 149Z" fill="#c3073f"></path><path d="M0 178L8.5 179.5C17 181 34 184 50.8 193.5C67.7 203 84.3 219 101.2 211.5C118 204 135 173 151.8 161.5C168.7 150 185.3 158 202.2 160.5C219 163 236 160 252.8 154.5C269.7 149 286.3 141 303.2 150C320 159 337 185 353.8 197.5C370.7 210 387.3 209 404.2 213.5C421 218 438 228 454.8 232C471.7 236 488.3 234 505.2 225C522 216 539 200 555.8 192C572.7 184 589.3 184 606.2 181.5C623 179 640 174 656.8 174.5C673.7 175 690.3 181 707.2 184.5C724 188 741 189 757.8 182C774.7 175 791.3 160 808.2 156C825 152 842 159 858.8 161C875.7 163 892.3 160 909.2 166.5C926 173 943 189 951.5 197L960 205L960 200L951.5 190C943 180 926 160 909.2 153.5C892.3 147 875.7 154 858.8 151C842 148 825 135 808.2 137C791.3 139 774.7 156 757.8 166C741 176 724 179 707.2 177C690.3 175 673.7 168 656.8 167C640 166 623 171 606.2 174.5C589.3 178 572.7 180 555.8 188.5C539 197 522 212 505.2 220C488.3 228 471.7 229 454.8 223C438 217 421 204 404.2 199C387.3 194 370.7 197 353.8 186.5C337 176 320 152 303.2 144.5C286.3 137 269.7 146 252.8 152C236 158 219 161 202.2 156C185.3 151 168.7 138 151.8 146C135 154 118 183 101.2 193C84.3 203 67.7 194 50.8 185.5C34 177 17 169 8.5 165L0 161Z" fill="#b40949"></path><path d="M0 235L8.5 234C17 233 34 231 50.8 232.5C67.7 234 84.3 239 101.2 235C118 231 135 218 151.8 207.5C168.7 197 185.3 189 202.2 182.5C219 176 236 171 252.8 166C269.7 161 286.3 156 303.2 168.5C320 181 337 211 353.8 225C370.7 239 387.3 237 404.2 238C421 239 438 243 454.8 243C471.7 243 488.3 239 505.2 234C522 229 539 223 555.8 221C572.7 219 589.3 221 606.2 217.5C623 214 640 205 656.8 200.5C673.7 196 690.3 196 707.2 202.5C724 209 741 222 757.8 219C774.7 216 791.3 197 808.2 189C825 181 842 184 858.8 184.5C875.7 185 892.3 183 909.2 197C926 211 943 241 951.5 256L960 271L960 203L951.5 195C943 187 926 171 909.2 164.5C892.3 158 875.7 161 858.8 159C842 157 825 150 808.2 154C791.3 158 774.7 173 757.8 180C741 187 724 186 707.2 182.5C690.3 179 673.7 173 656.8 172.5C640 172 623 177 606.2 179.5C589.3 182 572.7 182 555.8 190C539 198 522 214 505.2 223C488.3 232 471.7 234 454.8 230C438 226 421 216 404.2 211.5C387.3 207 370.7 208 353.8 195.5C337 183 320 157 303.2 148C286.3 139 269.7 147 252.8 152.5C236 158 219 161 202.2 158.5C185.3 156 168.7 148 151.8 159.5C135 171 118 202 101.2 209.5C84.3 217 67.7 201 50.8 191.5C34 182 17 179 8.5 177.5L0 176Z" fill="#871e56"></path><path d="M0 259L8.5 257.5C17 256 34 253 50.8 254.5C67.7 256 84.3 262 101.2 258C118 254 135 240 151.8 229.5C168.7 219 185.3 212 202.2 204C219 196 236 187 252.8 182C269.7 177 286.3 176 303.2 189C320 202 337 229 353.8 239.5C370.7 250 387.3 244 404.2 244C421 244 438 250 454.8 252C471.7 254 488.3 252 505.2 249C522 246 539 242 555.8 242C572.7 242 589.3 246 606.2 242C623 238 640 226 656.8 219C673.7 212 690.3 210 707.2 216C724 222 741 236 757.8 235.5C774.7 235 791.3 220 808.2 211.5C825 203 842 201 858.8 197.5C875.7 194 892.3 189 909.2 202.5C926 216 943 248 951.5 264L960 280L960 269L951.5 254C943 239 926 209 909.2 195C892.3 181 875.7 183 858.8 182.5C842 182 825 179 808.2 187C791.3 195 774.7 214 757.8 217C741 220 724 207 707.2 200.5C690.3 194 673.7 194 656.8 198.5C640 203 623 212 606.2 215.5C589.3 219 572.7 217 555.8 219C539 221 522 227 505.2 232C488.3 237 471.7 241 454.8 241C438 241 421 237 404.2 236C387.3 235 370.7 237 353.8 223C337 209 320 179 303.2 166.5C286.3 154 269.7 159 252.8 164C236 169 219 174 202.2 180.5C185.3 187 168.7 195 151.8 205.5C135 216 118 229 101.2 233C84.3 237 67.7 232 50.8 230.5C34 229 17 231 8.5 232L0 233Z" fill="#582752"></path><path d="M0 280L8.5 278.5C17 277 34 274 50.8 274.5C67.7 275 84.3 279 101.2 275C118 271 135 259 151.8 247C168.7 235 185.3 223 202.2 215C219 207 236 203 252.8 198C269.7 193 286.3 187 303.2 197.5C320 208 337 235 353.8 246.5C370.7 258 387.3 254 404.2 254.5C421 255 438 260 454.8 262C471.7 264 488.3 263 505.2 262C522 261 539 260 555.8 260.5C572.7 261 589.3 263 606.2 256C623 249 640 233 656.8 226C673.7 219 690.3 221 707.2 228C724 235 741 247 757.8 246C774.7 245 791.3 231 808.2 224C825 217 842 217 858.8 214.5C875.7 212 892.3 207 909.2 218C926 229 943 256 951.5 269.5L960 283L960 278L951.5 262C943 246 926 214 909.2 200.5C892.3 187 875.7 192 858.8 195.5C842 199 825 201 808.2 209.5C791.3 218 774.7 233 757.8 233.5C741 234 724 220 707.2 214C690.3 208 673.7 210 656.8 217C640 224 623 236 606.2 240C589.3 244 572.7 240 555.8 240C539 240 522 244 505.2 247C488.3 250 471.7 252 454.8 250C438 248 421 242 404.2 242C387.3 242 370.7 248 353.8 237.5C337 227 320 200 303.2 187C286.3 174 269.7 175 252.8 180C236 185 219 194 202.2 202C185.3 210 168.7 217 151.8 227.5C135 238 118 252 101.2 256C84.3 260 67.7 254 50.8 252.5C34 251 17 254 8.5 255.5L0 257Z" fill="#30243c"></path><path d="M0 301L8.5 301C17 301 34 301 50.8 301C67.7 301 84.3 301 101.2 301C118 301 135 301 151.8 301C168.7 301 185.3 301 202.2 301C219 301 236 301 252.8 301C269.7 301 286.3 301 303.2 301C320 301 337 301 353.8 301C370.7 301 387.3 301 404.2 301C421 301 438 301 454.8 301C471.7 301 488.3 301 505.2 301C522 301 539 301 555.8 301C572.7 301 589.3 301 606.2 301C623 301 640 301 656.8 301C673.7 301 690.3 301 707.2 301C724 301 741 301 757.8 301C774.7 301 791.3 301 808.2 301C825 301 842 301 858.8 301C875.7 301 892.3 301 909.2 301C926 301 943 301 951.5 301L960 301L960 281L951.5 267.5C943 254 926 227 909.2 216C892.3 205 875.7 210 858.8 212.5C842 215 825 215 808.2 222C791.3 229 774.7 243 757.8 244C741 245 724 233 707.2 226C690.3 219 673.7 217 656.8 224C640 231 623 247 606.2 254C589.3 261 572.7 259 555.8 258.5C539 258 522 259 505.2 260C488.3 261 471.7 262 454.8 260C438 258 421 253 404.2 252.5C387.3 252 370.7 256 353.8 244.5C337 233 320 206 303.2 195.5C286.3 185 269.7 191 252.8 196C236 201 219 205 202.2 213C185.3 221 168.7 233 151.8 245C135 257 118 269 101.2 273C84.3 277 67.7 273 50.8 272.5C34 272 17 275 8.5 276.5L0 278Z" fill="#1a1a1d"></path></svg>