<svg id="visual" viewBox="0 0 960 300" width="960" height="300" xmlns="http://www.w3.org/2000/svg" xmlns:xlink="http://www.w3.org/1999/xlink" version="1.1"><path d="M0 13L8.5 19C17 25 34 37 50.8 40C67.7 43 84.3 37 101.2 35.5C118 34 135 37 151.8 34C168.7 31 185.3 22 202.2 18C219 14 236 15 252.8 14.5C269.7 14 286.3 12 303.2 11C320 10 337 10 353.8 16.5C370.7 23 387.3 36 404.2 39C421 42 438 35 454.8 29.5C471.7 24 488.3 20 505.2 19C522 18 539 20 555.8 19C572.7 18 589.3 14 606.2 15C623 16 640 22 656.8 21.5C673.7 21 690.3 14 707.2 16C724 18 741 29 757.8 28.5C774.7 28 791.3 16 808.2 16C825 16 842 28 858.8 28.5C875.7 29 892.3 18 909.2 21C926 24 943 41 951.5 49.5L960 58L960 0L951.5 0C943 0 926 0 909.2 0C892.3 0 875.7 0 858.8 0C842 0 825 0 808.2 0C791.3 0 774.7 0 757.8 0C741 0 724 0 707.2 0C690.3 0 673.7 0 656.8 0C640 0 623 0 606.2 0C589.3 0 572.7 0 555.8 0C539 0 522 0 505.2 0C488.3 0 471.7 0 454.8 0C438 0 421 0 404.2 0C387.3 0 370.7 0 353.8 0C337 0 320 0 303.2 0C286.3 0 269.7 0 252.8 0C236 0 219 0 202.2 0C185.3 0 168.7 0 151.8 0C135 0 118 0 101.2 0C84.3 0 67.7 0 50.8 0C34 0 17 0 8.5 0L0 0Z" fill="#1a1a1d"></path><path d="M0 34L8.5 38C17 42 34 50 50.8 51C67.7 52 84.3 46 101.2 48.5C118 51 135 62 151.8 61.5C168.7 61 185.3 49 202.2 42.5C219 36 236 35 252.8 36.5C269.7 38 286.3 42 303.2 41.5C320 41 337 36 353.8 37.5C370.7 39 387.3 47 404.2 55.5C421 64 438 73 454.8 76.5C471.7 80 488.3 78 505.2 76C522 74 539 72 555.8 72C572.7 72 589.3 74 606.2 70.5C623 67 640 58 656.8 54C673.7 50 690.3 51 707.2 53.5C724 56 741 60 757.8 57C774.7 54 791.3 44 808.2 44C825 44 842 54 858.8 60.5C875.7 67 892.3 70 909.2 75.5C926 81 943 89 951.5 93L960 97L960 56L951.5 47.5C943 39 926 22 909.2 19C892.3 16 875.7 27 858.8 26.5C842 26 825 14 808.2 14C791.3 14 774.7 26 757.8 26.5C741 27 724 16 707.2 14C690.3 12 673.7 19 656.8 19.5C640 20 623 14 606.2 13C589.3 12 572.7 16 555.8 17C539 18 522 16 505.2 17C488.3 18 471.7 22 454.8 27.5C438 33 421 40 404.2 37C387.3 34 370.7 21 353.8 14.5C337 8 320 8 303.2 9C286.3 10 269.7 12 252.8 12.5C236 13 219 12 202.2 16C185.3 20 168.7 29 151.8 32C135 35 118 32 101.2 33.5C84.3 35 67.7 41 50.8 38C34 35 17 23 8.5 17L0 11Z" fill="#30243c"></path><path d="M0 58L8.5 60.5C17 63 34 68 50.8 69.5C67.7 71 84.3 69 101.2 73C118 77 135 87 151.8 86C168.7 85 185.3 73 202.2 64.5C219 56 236 51 252.8 53C269.7 55 286.3 64 303.2 64C320 64 337 55 353.8 52.5C370.7 50 387.3 54 404.2 61C421 68 438 78 454.8 81.5C471.7 85 488.3 82 505.2 80C522 78 539 77 555.8 80.5C572.7 84 589.3 92 606.2 92C623 92 640 84 656.8 77C673.7 70 690.3 64 707.2 65.5C724 67 741 76 757.8 73.5C774.7 71 791.3 57 808.2 56.5C825 56 842 69 858.8 78.5C875.7 88 892.3 94 909.2 99C926 104 943 108 951.5 110L960 112L960 95L951.5 91C943 87 926 79 909.2 73.5C892.3 68 875.7 65 858.8 58.5C842 52 825 42 808.2 42C791.3 42 774.7 52 757.8 55C741 58 724 54 707.2 51.5C690.3 49 673.7 48 656.8 52C640 56 623 65 606.2 68.5C589.3 72 572.7 70 555.8 70C539 70 522 72 505.2 74C488.3 76 471.7 78 454.8 74.5C438 71 421 62 404.2 53.5C387.3 45 370.7 37 353.8 35.5C337 34 320 39 303.2 39.5C286.3 40 269.7 36 252.8 34.5C236 33 219 34 202.2 40.5C185.3 47 168.7 59 151.8 59.5C135 60 118 49 101.2 46.5C84.3 44 67.7 50 50.8 49C34 48 17 40 8.5 36L0 32Z" fill="#582752"></path><path d="M0 100L8.5 103.5C17 107 34 114 50.8 110.5C67.7 107 84.3 93 101.2 98.5C118 104 135 129 151.8 128.5C168.7 128 185.3 102 202.2 96.5C219 91 236 106 252.8 112.5C269.7 119 286.3 117 303.2 126.5C320 136 337 157 353.8 165C370.7 173 387.3 168 404.2 164.5C421 161 438 159 454.8 155.5C471.7 152 488.3 147 505.2 148C522 149 539 156 555.8 153C572.7 150 589.3 137 606.2 139C623 141 640 158 656.8 151C673.7 144 690.3 113 707.2 102C724 91 741 100 757.8 104.5C774.7 109 791.3 109 808.2 108.5C825 108 842 107 858.8 118C875.7 129 892.3 152 909.2 162.5C926 173 943 171 951.5 170L960 169L960 110L951.5 108C943 106 926 102 909.2 97C892.3 92 875.7 86 858.8 76.5C842 67 825 54 808.2 54.5C791.3 55 774.7 69 757.8 71.5C741 74 724 65 707.2 63.5C690.3 62 673.7 68 656.8 75C640 82 623 90 606.2 90C589.3 90 572.7 82 555.8 78.5C539 75 522 76 505.2 78C488.3 80 471.7 83 454.8 79.5C438 76 421 66 404.2 59C387.3 52 370.7 48 353.8 50.5C337 53 320 62 303.2 62C286.3 62 269.7 53 252.8 51C236 49 219 54 202.2 62.5C185.3 71 168.7 83 151.8 84C135 85 118 75 101.2 71C84.3 67 67.7 69 50.8 67.5C34 66 17 61 8.5 58.5L0 56Z" fill="#871e56"></path><path d="M0 124L8.5 129.5C17 135 34 146 50.8 144.5C67.7 143 84.3 129 101.2 132.5C118 136 135 157 151.8 151.5C168.7 146 185.3 114 202.2 110C219 106 236 130 252.8 140C269.7 150 286.3 146 303.2 150.5C320 155 337 168 353.8 173.5C370.7 179 387.3 177 404.2 177C421 177 438 179 454.8 181C471.7 183 488.3 185 505.2 185.5C522 186 539 185 555.8 178C572.7 171 589.3 158 606.2 157C623 156 640 167 656.8 162C673.7 157 690.3 136 707.2 127C724 118 741 121 757.8 122.5C774.7 124 791.3 124 808.2 127C825 130 842 136 858.8 145.5C875.7 155 892.3 168 909.2 177C926 186 943 191 951.5 193.5L960 196L960 167L951.5 168C943 169 926 171 909.2 160.5C892.3 150 875.7 127 858.8 116C842 105 825 106 808.2 106.5C791.3 107 774.7 107 757.8 102.5C741 98 724 89 707.2 100C690.3 111 673.7 142 656.8 149C640 156 623 139 606.2 137C589.3 135 572.7 148 555.8 151C539 154 522 147 505.2 146C488.3 145 471.7 150 454.8 153.5C438 157 421 159 404.2 162.5C387.3 166 370.7 171 353.8 163C337 155 320 134 303.2 124.5C286.3 115 269.7 117 252.8 110.5C236 104 219 89 202.2 94.5C185.3 100 168.7 126 151.8 126.5C135 127 118 102 101.2 96.5C84.3 91 67.7 105 50.8 108.5C34 112 17 105 8.5 101.5L0 98Z" fill="#b40949"></path><path d="M0 145L8.5 148C17 151 34 157 50.8 153C67.7 149 84.3 135 101.2 137.5C118 140 135 159 151.8 153C168.7 147 185.3 116 202.2 115.5C219 115 236 145 252.8 154.5C269.7 164 286.3 153 303.2 154.5C320 156 337 170 353.8 178.5C370.7 187 387.3 190 404.2 190C421 190 438 187 454.8 186C471.7 185 488.3 186 505.2 187.5C522 189 539 191 555.8 185C572.7 179 589.3 165 606.2 163.5C623 162 640 173 656.8 170C673.7 167 690.3 150 707.2 140.5C724 131 741 129 757.8 128.5C774.7 128 791.3 129 808.2 135.5C825 142 842 154 858.8 163C875.7 172 892.3 178 909.2 183.5C926 189 943 194 951.5 196.5L960 199L960 194L951.5 191.5C943 189 926 184 909.2 175C892.3 166 875.7 153 858.8 143.5C842 134 825 128 808.2 125C791.3 122 774.7 122 757.8 120.5C741 119 724 116 707.2 125C690.3 134 673.7 155 656.8 160C640 165 623 154 606.2 155C589.3 156 572.7 169 555.8 176C539 183 522 184 505.2 183.5C488.3 183 471.7 181 454.8 179C438 177 421 175 404.2 175C387.3 175 370.7 177 353.8 171.5C337 166 320 153 303.2 148.5C286.3 144 269.7 148 252.8 138C236 128 219 104 202.2 108C185.3 112 168.7 144 151.8 149.5C135 155 118 134 101.2 130.5C84.3 127 67.7 141 50.8 142.5C34 144 17 133 8.5 127.5L0 122Z" fill="#c3073f"></path><path d="M0 157L8.5 161C17 165 34 173 50.8 169.5C67.7 166 84.3 151 101.2 154.5C118 158 135 180 151.8 177C168.7 174 185.3 146 202.2 144.5C219 143 236 168 252.8 173.5C269.7 179 286.3 165 303.2 166.5C320 168 337 185 353.8 196.5C370.7 208 387.3 214 404.2 213.5C421 213 438 206 454.8 202C471.7 198 488.3 197 505.2 200C522 203 539 210 555.8 207.5C572.7 205 589.3 193 606.2 191C623 189 640 197 656.8 190C673.7 183 690.3 161 707.2 150.5C724 140 741 141 757.8 142C774.7 143 791.3 144 808.2 152C825 160 842 175 858.8 183.5C875.7 192 892.3 194 909.2 198C926 202 943 208 951.5 211L960 214L960 197L951.5 194.5C943 192 926 187 909.2 181.5C892.3 176 875.7 170 858.8 161C842 152 825 140 808.2 133.5C791.3 127 774.7 126 757.8 126.5C741 127 724 129 707.2 138.5C690.3 148 673.7 165 656.8 168C640 171 623 160 606.2 161.5C589.3 163 572.7 177 555.8 183C539 189 522 187 505.2 185.5C488.3 184 471.7 183 454.8 184C438 185 421 188 404.2 188C387.3 188 370.7 185 353.8 176.5C337 168 320 154 303.2 152.5C286.3 151 269.7 162 252.8 152.5C236 143 219 113 202.2 113.5C185.3 114 168.7 145 151.8 151C135 157 118 138 101.2 135.5C84.3 133 67.7 147 50.8 151C34 155 17 149 8.5 146L0 143Z" fill="#c3073f"></path><path d="M0 181L8.5 182.5C17 184 34 187 50.8 182.5C67.7 178 84.3 166 101.2 172.5C118 179 135 204 151.8 200C168.7 196 185.3 163 202.2 158.5C219 154 236 178 252.8 185C269.7 192 286.3 182 303.2 185C320 188 337 204 353.8 213C370.7 222 387.3 224 404.2 222C421 220 438 214 454.8 213C471.7 212 488.3 216 505.2 221C522 226 539 232 555.8 226.5C572.7 221 589.3 204 606.2 203C623 202 640 217 656.8 213C673.7 209 690.3 186 707.2 172.5C724 159 741 155 757.8 155.5C774.7 156 791.3 161 808.2 170C825 179 842 192 858.8 198.5C875.7 205 892.3 205 909.2 208.5C926 212 943 219 951.5 222.5L960 226L960 212L951.5 209C943 206 926 200 909.2 196C892.3 192 875.7 190 858.8 181.5C842 173 825 158 808.2 150C791.3 142 774.7 141 757.8 140C741 139 724 138 707.2 148.5C690.3 159 673.7 181 656.8 188C640 195 623 187 606.2 189C589.3 191 572.7 203 555.8 205.5C539 208 522 201 505.2 198C488.3 195 471.7 196 454.8 200C438 204 421 211 404.2 211.5C387.3 212 370.7 206 353.8 194.5C337 183 320 166 303.2 164.5C286.3 163 269.7 177 252.8 171.5C236 166 219 141 202.2 142.5C185.3 144 168.7 172 151.8 175C135 178 118 156 101.2 152.5C84.3 149 67.7 164 50.8 167.5C34 171 17 163 8.5 159L0 155Z" fill="#b40949"></path><path d="M0 202L8.5 202.5C17 203 34 204 50.8 196.5C67.7 189 84.3 173 101.2 178.5C118 184 135 211 151.8 208C168.7 205 185.3 172 202.2 166C219 160 236 181 252.8 187C269.7 193 286.3 184 303.2 189.5C320 195 337 215 353.8 224.5C370.7 234 387.3 233 404.2 229C421 225 438 218 454.8 219.5C471.7 221 488.3 231 505.2 239C522 247 539 253 555.8 246C572.7 239 589.3 219 606.2 214.5C623 210 640 221 656.8 216C673.7 211 690.3 190 707.2 177C724 164 741 159 757.8 158.5C774.7 158 791.3 162 808.2 170.5C825 179 842 192 858.8 202C875.7 212 892.3 219 909.2 222.5C926 226 943 226 951.5 226L960 226L960 224L951.5 220.5C943 217 926 210 909.2 206.5C892.3 203 875.7 203 858.8 196.5C842 190 825 177 808.2 168C791.3 159 774.7 154 757.8 153.5C741 153 724 157 707.2 170.5C690.3 184 673.7 207 656.8 211C640 215 623 200 606.2 201C589.3 202 572.7 219 555.8 224.5C539 230 522 224 505.2 219C488.3 214 471.7 210 454.8 211C438 212 421 218 404.2 220C387.3 222 370.7 220 353.8 211C337 202 320 186 303.2 183C286.3 180 269.7 190 252.8 183C236 176 219 152 202.2 156.5C185.3 161 168.7 194 151.8 198C135 202 118 177 101.2 170.5C84.3 164 67.7 176 50.8 180.5C34 185 17 182 8.5 180.5L0 179Z" fill="#871e56"></path><path d="M0 268L8.5 269C17 270 34 272 50.8 271C67.7 270 84.3 266 101.2 264.5C118 263 135 264 151.8 264.5C168.7 265 185.3 265 202.2 267.5C219 270 236 275 252.8 273C269.7 271 286.3 262 303.2 258C320 254 337 255 353.8 254.5C370.7 254 387.3 252 404.2 250.5C421 249 438 248 454.8 254C471.7 260 488.3 273 505.2 278.5C522 284 539 282 555.8 282C572.7 282 589.3 284 606.2 280.5C623 277 640 268 656.8 262.5C673.7 257 690.3 255 707.2 257C724 259 741 265 757.8 264C774.7 263 791.3 255 808.2 253.5C825 252 842 257 858.8 259.5C875.7 262 892.3 262 909.2 265C926 268 943 274 951.5 277L960 280L960 224L951.5 224C943 224 926 224 909.2 220.5C892.3 217 875.7 210 858.8 200C842 190 825 177 808.2 168.5C791.3 160 774.7 156 757.8 156.5C741 157 724 162 707.2 175C690.3 188 673.7 209 656.8 214C640 219 623 208 606.2 212.5C589.3 217 572.7 237 555.8 244C539 251 522 245 505.2 237C488.3 229 471.7 219 454.8 217.5C438 216 421 223 404.2 227C387.3 231 370.7 232 353.8 222.5C337 213 320 193 303.2 187.5C286.3 182 269.7 191 252.8 185C236 179 219 158 202.2 164C185.3 170 168.7 203 151.8 206C135 209 118 182 101.2 176.5C84.3 171 67.7 187 50.8 194.5C34 202 17 201 8.5 200.5L0 200Z" fill="#582752"></path><path d="M0 283L8.5 285.5C17 288 34 293 50.8 294C67.7 295 84.3 292 101.2 291.5C118 291 135 293 151.8 294.5C168.7 296 185.3 297 202.2 295.5C219 294 236 290 252.8 288C269.7 286 286.3 286 303.2 285C320 284 337 282 353.8 280.5C370.7 279 387.3 278 404.2 279C421 280 438 283 454.8 285.5C471.7 288 488.3 290 505.2 291.5C522 293 539 294 555.8 294.5C572.7 295 589.3 295 606.2 292.5C623 290 640 285 656.8 283.5C673.7 282 690.3 284 707.2 286.5C724 289 741 292 757.8 290.5C774.7 289 791.3 283 808.2 283C825 283 842 289 858.8 291.5C875.7 294 892.3 293 909.2 291.5C926 290 943 288 951.5 287L960 286L960 278L951.5 275C943 272 926 266 909.2 263C892.3 260 875.7 260 858.8 257.5C842 255 825 250 808.2 251.5C791.3 253 774.7 261 757.8 262C741 263 724 257 707.2 255C690.3 253 673.7 255 656.8 260.5C640 266 623 275 606.2 278.5C589.3 282 572.7 280 555.8 280C539 280 522 282 505.2 276.5C488.3 271 471.7 258 454.8 252C438 246 421 247 404.2 248.5C387.3 250 370.7 252 353.8 252.5C337 253 320 252 303.2 256C286.3 260 269.7 269 252.8 271C236 273 219 268 202.2 265.5C185.3 263 168.7 263 151.8 262.5C135 262 118 261 101.2 262.5C84.3 264 67.7 268 50.8 269C34 270 17 268 8.5 267L0 266Z" fill="#30243c"></path><path d="M0 301L8.5 301C17 301 34 301 50.8 301C67.7 301 84.3 301 101.2 301C118 301 135 301 151.8 301C168.7 301 185.3 301 202.2 301C219 301 236 301 252.8 301C269.7 301 286.3 301 303.2 301C320 301 337 301 353.8 301C370.7 301 387.3 301 404.2 301C421 301 438 301 454.8 301C471.7 301 488.3 301 505.2 301C522 301 539 301 555.8 301C572.7 301 589.3 301 606.2 301C623 301 640 301 656.8 301C673.7 301 690.3 301 707.2 301C724 301 741 301 757.8 301C774.7 301 791.3 301 808.2 301C825 301 842 301 858.8 301C875.7 301 892.3 301 909.2 301C926 301 943 301 951.5 301L960 301L960 284L951.5 285C943 286 926 288 909.2 289.5C892.3 291 875.7 292 858.8 289.5C842 287 825 281 808.2 281C791.3 281 774.7 287 757.8 288.5C741 290 724 287 707.2 284.5C690.3 282 673.7 280 656.8 281.5C640 283 623 288 606.2 290.5C589.3 293 572.7 293 555.8 292.5C539 292 522 291 505.2 289.5C488.3 288 471.7 286 454.8 283.5C438 281 421 278 404.2 277C387.3 276 370.7 277 353.8 278.5C337 280 320 282 303.2 283C286.3 284 269.7 284 252.8 286C236 288 219 292 202.2 293.5C185.3 295 168.7 294 151.8 292.5C135 291 118 289 101.2 289.5C84.3 290 67.7 293 50.8 292C34 291 17 286 8.5 283.5L0 281Z" fill="#1a1a1d"></path></svg>