<svg id="visual" viewBox="0 0 960 300" width="960" height="300" xmlns="http://www.w3.org/2000/svg" xmlns:xlink="http://www.w3.org/1999/xlink" version="1.1"><path d="M0 40L8.5 34C17 28 34 16 50.8 10C67.7 4 84.3 4 101.2 5.5C118 7 135 10 151.8 10.5C168.7 11 185.3 9 202.2 9.5C219 10 236 13 252.8 17C269.7 21 286.3 26 303.2 24C320 22 337 13 353.8 8.5C370.7 4 387.3 4 404.2 9.5C421 15 438 26 454.8 32C471.7 38 488.3 39 505.2 34.5C522 30 539 20 555.8 17C572.7 14 589.3 18 606.2 21C623 24 640 26 656.8 24C673.7 22 690.3 16 707.2 16C724 16 741 22 757.8 26.5C774.7 31 791.3 34 808.2 36C825 38 842 39 858.8 35.5C875.7 32 892.3 24 909.2 22.5C926 21 943 26 951.5 28.5L960 31L960 0L951.5 0C943 0 926 0 909.2 0C892.3 0 875.7 0 858.8 0C842 0 825 0 808.2 0C791.3 0 774.7 0 757.8 0C741 0 724 0 707.2 0C690.3 0 673.7 0 656.8 0C640 0 623 0 606.2 0C589.3 0 572.7 0 555.8 0C539 0 522 0 505.2 0C488.3 0 471.7 0 454.8 0C438 0 421 0 404.2 0C387.3 0 370.7 0 353.8 0C337 0 320 0 303.2 0C286.3 0 269.7 0 252.8 0C236 0 219 0 202.2 0C185.3 0 168.7 0 151.8 0C135 0 118 0 101.2 0C84.3 0 67.7 0 50.8 0C34 0 17 0 8.5 0L0 0Z" fill="#1a1a1d"></path><path d="M0 61L8.5 53.5C17 46 34 31 50.8 27C67.7 23 84.3 30 101.2 32.5C118 35 135 33 151.8 28.5C168.7 24 185.3 17 202.2 19.5C219 22 236 34 252.8 39C269.7 44 286.3 42 303.2 37.5C320 33 337 26 353.8 25C370.7 24 387.3 29 404.2 36C421 43 438 52 454.8 55.5C471.7 59 488.3 57 505.2 53C522 49 539 43 555.8 42C572.7 41 589.3 45 606.2 47C623 49 640 49 656.8 46.5C673.7 44 690.3 39 707.2 38.5C724 38 741 42 757.8 48.5C774.7 55 791.3 64 808.2 66.5C825 69 842 65 858.8 56C875.7 47 892.3 33 909.2 31.5C926 30 943 41 951.5 46.5L960 52L960 29L951.5 26.5C943 24 926 19 909.2 20.5C892.3 22 875.7 30 858.8 33.5C842 37 825 36 808.2 34C791.3 32 774.7 29 757.8 24.5C741 20 724 14 707.2 14C690.3 14 673.7 20 656.8 22C640 24 623 22 606.2 19C589.3 16 572.7 12 555.8 15C539 18 522 28 505.2 32.5C488.3 37 471.7 36 454.8 30C438 24 421 13 404.2 7.5C387.3 2 370.7 2 353.8 6.5C337 11 320 20 303.2 22C286.3 24 269.7 19 252.8 15C236 11 219 8 202.2 7.5C185.3 7 168.7 9 151.8 8.5C135 8 118 5 101.2 3.5C84.3 2 67.7 2 50.8 8C34 14 17 26 8.5 32L0 38Z" fill="#30243c"></path><path d="M0 76L8.5 70C17 64 34 52 50.8 48.5C67.7 45 84.3 50 101.2 49C118 48 135 41 151.8 33.5C168.7 26 185.3 18 202.2 21.5C219 25 236 40 252.8 49C269.7 58 286.3 61 303.2 56C320 51 337 38 353.8 33.5C370.7 29 387.3 33 404.2 43C421 53 438 69 454.8 72C471.7 75 488.3 65 505.2 59.5C522 54 539 53 555.8 54.5C572.7 56 589.3 60 606.2 61C623 62 640 60 656.8 58.5C673.7 57 690.3 56 707.2 57.5C724 59 741 63 757.8 67.5C774.7 72 791.3 77 808.2 79C825 81 842 80 858.8 70.5C875.7 61 892.3 43 909.2 42C926 41 943 57 951.5 65L960 73L960 50L951.5 44.5C943 39 926 28 909.2 29.5C892.3 31 875.7 45 858.8 54C842 63 825 67 808.2 64.5C791.3 62 774.7 53 757.8 46.5C741 40 724 36 707.2 36.5C690.3 37 673.7 42 656.8 44.5C640 47 623 47 606.2 45C589.3 43 572.7 39 555.8 40C539 41 522 47 505.2 51C488.3 55 471.7 57 454.8 53.5C438 50 421 41 404.2 34C387.3 27 370.7 22 353.8 23C337 24 320 31 303.2 35.5C286.3 40 269.7 42 252.8 37C236 32 219 20 202.2 17.5C185.3 15 168.7 22 151.8 26.5C135 31 118 33 101.2 30.5C84.3 28 67.7 21 50.8 25C34 29 17 44 8.5 51.5L0 59Z" fill="#582752"></path><path d="M0 85L8.5 80C17 75 34 65 50.8 68C67.7 71 84.3 87 101.2 90C118 93 135 83 151.8 72.5C168.7 62 185.3 51 202.2 56.5C219 62 236 84 252.8 96C269.7 108 286.3 110 303.2 98C320 86 337 60 353.8 50.5C370.7 41 387.3 48 404.2 61.5C421 75 438 95 454.8 98.5C471.7 102 488.3 89 505.2 87.5C522 86 539 96 555.8 101C572.7 106 589.3 106 606.2 100C623 94 640 82 656.8 82.5C673.7 83 690.3 96 707.2 103.5C724 111 741 113 757.8 117C774.7 121 791.3 127 808.2 129C825 131 842 129 858.8 118C875.7 107 892.3 87 909.2 85C926 83 943 99 951.5 107L960 115L960 71L951.5 63C943 55 926 39 909.2 40C892.3 41 875.7 59 858.8 68.5C842 78 825 79 808.2 77C791.3 75 774.7 70 757.8 65.5C741 61 724 57 707.2 55.5C690.3 54 673.7 55 656.8 56.5C640 58 623 60 606.2 59C589.3 58 572.7 54 555.8 52.5C539 51 522 52 505.2 57.5C488.3 63 471.7 73 454.8 70C438 67 421 51 404.2 41C387.3 31 370.7 27 353.8 31.5C337 36 320 49 303.2 54C286.3 59 269.7 56 252.8 47C236 38 219 23 202.2 19.5C185.3 16 168.7 24 151.8 31.5C135 39 118 46 101.2 47C84.3 48 67.7 43 50.8 46.5C34 50 17 62 8.5 68L0 74Z" fill="#871e56"></path><path d="M0 103L8.5 102.5C17 102 34 101 50.8 102.5C67.7 104 84.3 108 101.2 106C118 104 135 96 151.8 86C168.7 76 185.3 64 202.2 72.5C219 81 236 110 252.8 125.5C269.7 141 286.3 143 303.2 126.5C320 110 337 75 353.8 65C370.7 55 387.3 70 404.2 83C421 96 438 107 454.8 108.5C471.7 110 488.3 102 505.2 106.5C522 111 539 128 555.8 135.5C572.7 143 589.3 141 606.2 134.5C623 128 640 117 656.8 119.5C673.7 122 690.3 138 707.2 143.5C724 149 741 144 757.8 141.5C774.7 139 791.3 139 808.2 143.5C825 148 842 157 858.8 153.5C875.7 150 892.3 134 909.2 126.5C926 119 943 120 951.5 120.5L960 121L960 113L951.5 105C943 97 926 81 909.2 83C892.3 85 875.7 105 858.8 116C842 127 825 129 808.2 127C791.3 125 774.7 119 757.8 115C741 111 724 109 707.2 101.5C690.3 94 673.7 81 656.8 80.5C640 80 623 92 606.2 98C589.3 104 572.7 104 555.8 99C539 94 522 84 505.2 85.5C488.3 87 471.7 100 454.8 96.5C438 93 421 73 404.2 59.5C387.3 46 370.7 39 353.8 48.5C337 58 320 84 303.2 96C286.3 108 269.7 106 252.8 94C236 82 219 60 202.2 54.5C185.3 49 168.7 60 151.8 70.5C135 81 118 91 101.2 88C84.3 85 67.7 69 50.8 66C34 63 17 73 8.5 78L0 83Z" fill="#b40949"></path><path d="M0 112L8.5 111.5C17 111 34 110 50.8 113.5C67.7 117 84.3 125 101.2 126C118 127 135 121 151.8 109C168.7 97 185.3 79 202.2 85.5C219 92 236 123 252.8 139C269.7 155 286.3 156 303.2 140.5C320 125 337 93 353.8 85.5C370.7 78 387.3 95 404.2 108C421 121 438 130 454.8 131.5C471.7 133 488.3 127 505.2 129.5C522 132 539 143 555.8 147C572.7 151 589.3 148 606.2 142.5C623 137 640 129 656.8 132.5C673.7 136 690.3 151 707.2 156.5C724 162 741 158 757.8 155.5C774.7 153 791.3 152 808.2 158.5C825 165 842 179 858.8 176C875.7 173 892.3 153 909.2 142C926 131 943 129 951.5 128L960 127L960 119L951.5 118.5C943 118 926 117 909.2 124.5C892.3 132 875.7 148 858.8 151.5C842 155 825 146 808.2 141.5C791.3 137 774.7 137 757.8 139.5C741 142 724 147 707.2 141.5C690.3 136 673.7 120 656.8 117.5C640 115 623 126 606.2 132.5C589.3 139 572.7 141 555.8 133.5C539 126 522 109 505.2 104.5C488.3 100 471.7 108 454.8 106.5C438 105 421 94 404.2 81C387.3 68 370.7 53 353.8 63C337 73 320 108 303.2 124.5C286.3 141 269.7 139 252.8 123.5C236 108 219 79 202.2 70.5C185.3 62 168.7 74 151.8 84C135 94 118 102 101.2 104C84.3 106 67.7 102 50.8 100.5C34 99 17 100 8.5 100.5L0 101Z" fill="#c3073f"></path><path d="M0 124L8.5 124C17 124 34 124 50.8 128.5C67.7 133 84.3 142 101.2 141C118 140 135 129 151.8 117.5C168.7 106 185.3 94 202.2 103C219 112 236 142 252.8 155.5C269.7 169 286.3 166 303.2 151C320 136 337 109 353.8 102C370.7 95 387.3 108 404.2 120C421 132 438 143 454.8 145.5C471.7 148 488.3 142 505.2 145.5C522 149 539 162 555.8 167C572.7 172 589.3 169 606.2 162.5C623 156 640 146 656.8 147C673.7 148 690.3 160 707.2 164C724 168 741 164 757.8 163.5C774.7 163 791.3 166 808.2 172.5C825 179 842 189 858.8 184.5C875.7 180 892.3 161 909.2 151C926 141 943 140 951.5 139.5L960 139L960 125L951.5 126C943 127 926 129 909.2 140C892.3 151 875.7 171 858.8 174C842 177 825 163 808.2 156.5C791.3 150 774.7 151 757.8 153.5C741 156 724 160 707.2 154.5C690.3 149 673.7 134 656.8 130.5C640 127 623 135 606.2 140.5C589.3 146 572.7 149 555.8 145C539 141 522 130 505.2 127.5C488.3 125 471.7 131 454.8 129.5C438 128 421 119 404.2 106C387.3 93 370.7 76 353.8 83.5C337 91 320 123 303.2 138.5C286.3 154 269.7 153 252.8 137C236 121 219 90 202.2 83.5C185.3 77 168.7 95 151.8 107C135 119 118 125 101.2 124C84.3 123 67.7 115 50.8 111.5C34 108 17 109 8.5 109.5L0 110Z" fill="#c3073f"></path><path d="M0 142L8.5 143C17 144 34 146 50.8 150C67.7 154 84.3 160 101.2 160C118 160 135 154 151.8 144C168.7 134 185.3 120 202.2 125.5C219 131 236 156 252.8 167.5C269.7 179 286.3 177 303.2 161C320 145 337 115 353.8 110C370.7 105 387.3 125 404.2 138C421 151 438 157 454.8 159.5C471.7 162 488.3 161 505.2 166C522 171 539 182 555.8 187C572.7 192 589.3 191 606.2 183C623 175 640 160 656.8 157.5C673.7 155 690.3 165 707.2 168C724 171 741 167 757.8 169C774.7 171 791.3 179 808.2 189.5C825 200 842 213 858.8 209.5C875.7 206 892.3 186 909.2 174C926 162 943 158 951.5 156L960 154L960 137L951.5 137.5C943 138 926 139 909.2 149C892.3 159 875.7 178 858.8 182.5C842 187 825 177 808.2 170.5C791.3 164 774.7 161 757.8 161.5C741 162 724 166 707.2 162C690.3 158 673.7 146 656.8 145C640 144 623 154 606.2 160.5C589.3 167 572.7 170 555.8 165C539 160 522 147 505.2 143.5C488.3 140 471.7 146 454.8 143.5C438 141 421 130 404.2 118C387.3 106 370.7 93 353.8 100C337 107 320 134 303.2 149C286.3 164 269.7 167 252.8 153.5C236 140 219 110 202.2 101C185.3 92 168.7 104 151.8 115.5C135 127 118 138 101.2 139C84.3 140 67.7 131 50.8 126.5C34 122 17 122 8.5 122L0 122Z" fill="#b40949"></path><path d="M0 160L8.5 162C17 164 34 168 50.8 172.5C67.7 177 84.3 182 101.2 181C118 180 135 173 151.8 162C168.7 151 185.3 136 202.2 141.5C219 147 236 173 252.8 185.5C269.7 198 286.3 197 303.2 181C320 165 337 134 353.8 129C370.7 124 387.3 145 404.2 159.5C421 174 438 182 454.8 182.5C471.7 183 488.3 176 505.2 177C522 178 539 187 555.8 193.5C572.7 200 589.3 204 606.2 198C623 192 640 176 656.8 175.5C673.7 175 690.3 190 707.2 196C724 202 741 199 757.8 198C774.7 197 791.3 198 808.2 204C825 210 842 221 858.8 219.5C875.7 218 892.3 204 909.2 192.5C926 181 943 172 951.5 167.5L960 163L960 152L951.5 154C943 156 926 160 909.2 172C892.3 184 875.7 204 858.8 207.5C842 211 825 198 808.2 187.5C791.3 177 774.7 169 757.8 167C741 165 724 169 707.2 166C690.3 163 673.7 153 656.8 155.5C640 158 623 173 606.2 181C589.3 189 572.7 190 555.8 185C539 180 522 169 505.2 164C488.3 159 471.7 160 454.8 157.5C438 155 421 149 404.2 136C387.3 123 370.7 103 353.8 108C337 113 320 143 303.2 159C286.3 175 269.7 177 252.8 165.5C236 154 219 129 202.2 123.5C185.3 118 168.7 132 151.8 142C135 152 118 158 101.2 158C84.3 158 67.7 152 50.8 148C34 144 17 142 8.5 141L0 140Z" fill="#871e56"></path><path d="M0 208L8.5 212C17 216 34 224 50.8 233.5C67.7 243 84.3 254 101.2 247.5C118 241 135 217 151.8 206C168.7 195 185.3 197 202.2 205.5C219 214 236 229 252.8 238C269.7 247 286.3 250 303.2 243.5C320 237 337 221 353.8 210.5C370.7 200 387.3 195 404.2 204.5C421 214 438 238 454.8 250C471.7 262 488.3 262 505.2 262.5C522 263 539 264 555.8 259.5C572.7 255 589.3 245 606.2 246C623 247 640 259 656.8 263.5C673.7 268 690.3 265 707.2 258C724 251 741 240 757.8 241.5C774.7 243 791.3 257 808.2 265C825 273 842 275 858.8 274C875.7 273 892.3 269 909.2 267C926 265 943 265 951.5 265L960 265L960 161L951.5 165.5C943 170 926 179 909.2 190.5C892.3 202 875.7 216 858.8 217.5C842 219 825 208 808.2 202C791.3 196 774.7 195 757.8 196C741 197 724 200 707.2 194C690.3 188 673.7 173 656.8 173.5C640 174 623 190 606.2 196C589.3 202 572.7 198 555.8 191.5C539 185 522 176 505.2 175C488.3 174 471.7 181 454.8 180.5C438 180 421 172 404.2 157.5C387.3 143 370.7 122 353.8 127C337 132 320 163 303.2 179C286.3 195 269.7 196 252.8 183.5C236 171 219 145 202.2 139.5C185.3 134 168.7 149 151.8 160C135 171 118 178 101.2 179C84.3 180 67.7 175 50.8 170.5C34 166 17 162 8.5 160L0 158Z" fill="#582752"></path><path d="M0 217L8.5 221.5C17 226 34 235 50.8 244C67.7 253 84.3 262 101.2 254C118 246 135 221 151.8 212C168.7 203 185.3 210 202.2 220C219 230 236 243 252.8 251.5C269.7 260 286.3 264 303.2 257.5C320 251 337 234 353.8 221C370.7 208 387.3 199 404.2 207.5C421 216 438 242 454.8 256.5C471.7 271 488.3 274 505.2 274C522 274 539 271 555.8 267.5C572.7 264 589.3 260 606.2 260.5C623 261 640 266 656.8 269C673.7 272 690.3 273 707.2 267C724 261 741 248 757.8 249.5C774.7 251 791.3 267 808.2 274.5C825 282 842 281 858.8 278.5C875.7 276 892.3 272 909.2 273C926 274 943 280 951.5 283L960 286L960 263L951.5 263C943 263 926 263 909.2 265C892.3 267 875.7 271 858.8 272C842 273 825 271 808.2 263C791.3 255 774.7 241 757.8 239.5C741 238 724 249 707.2 256C690.3 263 673.7 266 656.8 261.5C640 257 623 245 606.2 244C589.3 243 572.7 253 555.8 257.5C539 262 522 261 505.2 260.5C488.3 260 471.7 260 454.8 248C438 236 421 212 404.2 202.5C387.3 193 370.7 198 353.8 208.5C337 219 320 235 303.2 241.5C286.3 248 269.7 245 252.8 236C236 227 219 212 202.2 203.5C185.3 195 168.7 193 151.8 204C135 215 118 239 101.2 245.5C84.3 252 67.7 241 50.8 231.5C34 222 17 214 8.5 210L0 206Z" fill="#30243c"></path><path d="M0 301L8.5 301C17 301 34 301 50.8 301C67.7 301 84.3 301 101.2 301C118 301 135 301 151.8 301C168.7 301 185.3 301 202.2 301C219 301 236 301 252.8 301C269.7 301 286.3 301 303.2 301C320 301 337 301 353.8 301C370.7 301 387.3 301 404.2 301C421 301 438 301 454.8 301C471.7 301 488.3 301 505.2 301C522 301 539 301 555.8 301C572.7 301 589.3 301 606.2 301C623 301 640 301 656.8 301C673.7 301 690.3 301 707.2 301C724 301 741 301 757.8 301C774.7 301 791.3 301 808.2 301C825 301 842 301 858.8 301C875.7 301 892.3 301 909.2 301C926 301 943 301 951.5 301L960 301L960 284L951.5 281C943 278 926 272 909.2 271C892.3 270 875.7 274 858.8 276.5C842 279 825 280 808.2 272.5C791.3 265 774.7 249 757.8 247.5C741 246 724 259 707.2 265C690.3 271 673.7 270 656.8 267C640 264 623 259 606.2 258.5C589.3 258 572.7 262 555.8 265.5C539 269 522 272 505.2 272C488.3 272 471.7 269 454.8 254.5C438 240 421 214 404.2 205.5C387.3 197 370.7 206 353.8 219C337 232 320 249 303.2 255.5C286.3 262 269.7 258 252.8 249.5C236 241 219 228 202.2 218C185.3 208 168.7 201 151.8 210C135 219 118 244 101.2 252C84.3 260 67.7 251 50.8 242C34 233 17 224 8.5 219.5L0 215Z" fill="#1a1a1d"></path></svg>