<svg id="visual" viewBox="0 0 960 300" width="960" height="300" xmlns="http://www.w3.org/2000/svg" xmlns:xlink="http://www.w3.org/1999/xlink" version="1.1"><path d="M0 28L8.8 32.5C17.7 37 35.3 46 53.2 45.5C71 45 89 35 106.8 28.5C124.7 22 142.3 19 160 18C177.7 17 195.3 18 213.2 23C231 28 249 37 266.8 40C284.7 43 302.3 40 320 34.5C337.7 29 355.3 21 373.2 24.5C391 28 409 43 426.8 47.5C444.7 52 462.3 46 480 37.5C497.7 29 515.3 18 533.2 17C551 16 569 25 586.8 32C604.7 39 622.3 44 640 42.5C657.7 41 675.3 33 693.2 34.5C711 36 729 47 746.8 52.5C764.7 58 782.3 58 800 54C817.7 50 835.3 42 853.2 44C871 46 889 58 906.8 57.5C924.7 57 942.3 44 951.2 37.5L960 31L960 0L951.2 0C942.3 0 924.7 0 906.8 0C889 0 871 0 853.2 0C835.3 0 817.7 0 800 0C782.3 0 764.7 0 746.8 0C729 0 711 0 693.2 0C675.3 0 657.7 0 640 0C622.3 0 604.7 0 586.8 0C569 0 551 0 533.2 0C515.3 0 497.7 0 480 0C462.3 0 444.7 0 426.8 0C409 0 391 0 373.2 0C355.3 0 337.7 0 320 0C302.3 0 284.7 0 266.8 0C249 0 231 0 213.2 0C195.3 0 177.7 0 160 0C142.3 0 124.7 0 106.8 0C89 0 71 0 53.2 0C35.3 0 17.7 0 8.8 0L0 0Z" fill="#1a1a1d"></path><path d="M0 40L8.8 46C17.7 52 35.3 64 53.2 64.5C71 65 89 54 106.8 47.5C124.7 41 142.3 39 160 39C177.7 39 195.3 41 213.2 45C231 49 249 55 266.8 57.5C284.7 60 302.3 59 320 54C337.7 49 355.3 40 373.2 42C391 44 409 57 426.8 59.5C444.7 62 462.3 54 480 44.5C497.7 35 515.3 24 533.2 25.5C551 27 569 41 586.8 50C604.7 59 622.3 63 640 59.5C657.7 56 675.3 45 693.2 45.5C711 46 729 58 746.8 63.5C764.7 69 782.3 68 800 64C817.7 60 835.3 53 853.2 54C871 55 889 64 906.8 65.5C924.7 67 942.3 61 951.2 58L960 55L960 29L951.2 35.5C942.3 42 924.7 55 906.8 55.5C889 56 871 44 853.2 42C835.3 40 817.7 48 800 52C782.3 56 764.7 56 746.8 50.5C729 45 711 34 693.2 32.5C675.3 31 657.7 39 640 40.5C622.3 42 604.7 37 586.8 30C569 23 551 14 533.2 15C515.3 16 497.7 27 480 35.5C462.3 44 444.7 50 426.8 45.5C409 41 391 26 373.2 22.5C355.3 19 337.7 27 320 32.5C302.3 38 284.7 41 266.8 38C249 35 231 26 213.2 21C195.3 16 177.7 15 160 16C142.3 17 124.7 20 106.8 26.5C89 33 71 43 53.2 43.5C35.3 44 17.7 35 8.8 30.5L0 26Z" fill="#30243c"></path><path d="M0 64L8.8 70C17.7 76 35.3 88 53.2 86.5C71 85 89 70 106.8 62.5C124.7 55 142.3 55 160 56C177.7 57 195.3 59 213.2 62C231 65 249 69 266.8 71.5C284.7 74 302.3 75 320 70C337.7 65 355.3 54 373.2 55.5C391 57 409 71 426.8 75.5C444.7 80 462.3 75 480 63.5C497.7 52 515.3 34 533.2 34.5C551 35 569 54 586.8 63.5C604.7 73 622.3 73 640 69.5C657.7 66 675.3 59 693.2 60.5C711 62 729 72 746.8 77.5C764.7 83 782.3 84 800 80.5C817.7 77 835.3 69 853.2 69C871 69 889 77 906.8 79.5C924.7 82 942.3 79 951.2 77.5L960 76L960 53L951.2 56C942.3 59 924.7 65 906.8 63.5C889 62 871 53 853.2 52C835.3 51 817.7 58 800 62C782.3 66 764.7 67 746.8 61.5C729 56 711 44 693.2 43.5C675.3 43 657.7 54 640 57.5C622.3 61 604.7 57 586.8 48C569 39 551 25 533.2 23.5C515.3 22 497.7 33 480 42.5C462.3 52 444.7 60 426.8 57.5C409 55 391 42 373.2 40C355.3 38 337.7 47 320 52C302.3 57 284.7 58 266.8 55.5C249 53 231 47 213.2 43C195.3 39 177.7 37 160 37C142.3 37 124.7 39 106.8 45.5C89 52 71 63 53.2 62.5C35.3 62 17.7 50 8.8 44L0 38Z" fill="#582752"></path><path d="M0 94L8.8 97.5C17.7 101 35.3 108 53.2 104C71 100 89 85 106.8 76.5C124.7 68 142.3 66 160 66.5C177.7 67 195.3 70 213.2 73C231 76 249 79 266.8 84C284.7 89 302.3 96 320 90.5C337.7 85 355.3 67 373.2 70C391 73 409 97 426.8 102.5C444.7 108 462.3 95 480 82.5C497.7 70 515.3 58 533.2 61C551 64 569 82 586.8 90C604.7 98 622.3 96 640 92.5C657.7 89 675.3 84 693.2 89C711 94 729 109 746.8 115C764.7 121 782.3 118 800 112C817.7 106 835.3 97 853.2 92.5C871 88 889 88 906.8 89C924.7 90 942.3 92 951.2 93L960 94L960 74L951.2 75.5C942.3 77 924.7 80 906.8 77.5C889 75 871 67 853.2 67C835.3 67 817.7 75 800 78.5C782.3 82 764.7 81 746.8 75.5C729 70 711 60 693.2 58.5C675.3 57 657.7 64 640 67.5C622.3 71 604.7 71 586.8 61.5C569 52 551 33 533.2 32.5C515.3 32 497.7 50 480 61.5C462.3 73 444.7 78 426.8 73.5C409 69 391 55 373.2 53.5C355.3 52 337.7 63 320 68C302.3 73 284.7 72 266.8 69.5C249 67 231 63 213.2 60C195.3 57 177.7 55 160 54C142.3 53 124.7 53 106.8 60.5C89 68 71 83 53.2 84.5C35.3 86 17.7 74 8.8 68L0 62Z" fill="#871e56"></path><path d="M0 106L8.8 109C17.7 112 35.3 118 53.2 114.5C71 111 89 98 106.8 88.5C124.7 79 142.3 73 160 71.5C177.7 70 195.3 73 213.2 76.5C231 80 249 84 266.8 90C284.7 96 302.3 104 320 99.5C337.7 95 355.3 78 373.2 79.5C391 81 409 101 426.8 106C444.7 111 462.3 101 480 90C497.7 79 515.3 67 533.2 71.5C551 76 569 97 586.8 104C604.7 111 622.3 104 640 97.5C657.7 91 675.3 85 693.2 91.5C711 98 729 117 746.8 123C764.7 129 782.3 122 800 117C817.7 112 835.3 109 853.2 108C871 107 889 108 906.8 109.5C924.7 111 942.3 113 951.2 114L960 115L960 92L951.2 91C942.3 90 924.7 88 906.8 87C889 86 871 86 853.2 90.5C835.3 95 817.7 104 800 110C782.3 116 764.7 119 746.8 113C729 107 711 92 693.2 87C675.3 82 657.7 87 640 90.5C622.3 94 604.7 96 586.8 88C569 80 551 62 533.2 59C515.3 56 497.7 68 480 80.5C462.3 93 444.7 106 426.8 100.5C409 95 391 71 373.2 68C355.3 65 337.7 83 320 88.5C302.3 94 284.7 87 266.8 82C249 77 231 74 213.2 71C195.3 68 177.7 65 160 64.5C142.3 64 124.7 66 106.8 74.5C89 83 71 98 53.2 102C35.3 106 17.7 99 8.8 95.5L0 92Z" fill="#b40949"></path><path d="M0 109L8.8 114.5C17.7 120 35.3 131 53.2 129.5C71 128 89 114 106.8 102C124.7 90 142.3 80 160 77C177.7 74 195.3 78 213.2 84C231 90 249 98 266.8 103C284.7 108 302.3 110 320 105C337.7 100 355.3 88 373.2 92.5C391 97 409 118 426.8 121.5C444.7 125 462.3 111 480 98C497.7 85 515.3 73 533.2 79C551 85 569 109 586.8 118.5C604.7 128 622.3 123 640 117.5C657.7 112 675.3 106 693.2 111.5C711 117 729 134 746.8 140.5C764.7 147 782.3 143 800 137C817.7 131 835.3 123 853.2 120.5C871 118 889 121 906.8 123C924.7 125 942.3 126 951.2 126.5L960 127L960 113L951.2 112C942.3 111 924.7 109 906.8 107.5C889 106 871 105 853.2 106C835.3 107 817.7 110 800 115C782.3 120 764.7 127 746.8 121C729 115 711 96 693.2 89.5C675.3 83 657.7 89 640 95.5C622.3 102 604.7 109 586.8 102C569 95 551 74 533.2 69.5C515.3 65 497.7 77 480 88C462.3 99 444.7 109 426.8 104C409 99 391 79 373.2 77.5C355.3 76 337.7 93 320 97.5C302.3 102 284.7 94 266.8 88C249 82 231 78 213.2 74.5C195.3 71 177.7 68 160 69.5C142.3 71 124.7 77 106.8 86.5C89 96 71 109 53.2 112.5C35.3 116 17.7 110 8.8 107L0 104Z" fill="#c3073f"></path><path d="M0 136L8.8 138C17.7 140 35.3 144 53.2 139C71 134 89 120 106.8 112C124.7 104 142.3 102 160 103.5C177.7 105 195.3 110 213.2 111.5C231 113 249 111 266.8 113C284.7 115 302.3 121 320 121C337.7 121 355.3 115 373.2 122.5C391 130 409 151 426.8 152.5C444.7 154 462.3 136 480 118C497.7 100 515.3 82 533.2 87.5C551 93 569 122 586.8 133.5C604.7 145 622.3 139 640 131.5C657.7 124 675.3 115 693.2 121C711 127 729 148 746.8 154.5C764.7 161 782.3 153 800 150C817.7 147 835.3 149 853.2 146.5C871 144 889 137 906.8 135.5C924.7 134 942.3 138 951.2 140L960 142L960 125L951.2 124.5C942.3 124 924.7 123 906.8 121C889 119 871 116 853.2 118.5C835.3 121 817.7 129 800 135C782.3 141 764.7 145 746.8 138.5C729 132 711 115 693.2 109.5C675.3 104 657.7 110 640 115.5C622.3 121 604.7 126 586.8 116.5C569 107 551 83 533.2 77C515.3 71 497.7 83 480 96C462.3 109 444.7 123 426.8 119.5C409 116 391 95 373.2 90.5C355.3 86 337.7 98 320 103C302.3 108 284.7 106 266.8 101C249 96 231 88 213.2 82C195.3 76 177.7 72 160 75C142.3 78 124.7 88 106.8 100C89 112 71 126 53.2 127.5C35.3 129 17.7 118 8.8 112.5L0 107Z" fill="#c3073f"></path><path d="M0 226L8.8 214C17.7 202 35.3 178 53.2 167C71 156 89 158 106.8 152.5C124.7 147 142.3 134 160 135.5C177.7 137 195.3 153 213.2 167C231 181 249 193 266.8 190C284.7 187 302.3 169 320 156.5C337.7 144 355.3 137 373.2 148C391 159 409 188 426.8 200C444.7 212 462.3 207 480 194C497.7 181 515.3 160 533.2 154C551 148 569 157 586.8 159.5C604.7 162 622.3 158 640 165C657.7 172 675.3 190 693.2 194.5C711 199 729 190 746.8 191.5C764.7 193 782.3 205 800 210C817.7 215 835.3 213 853.2 212.5C871 212 889 213 906.8 211.5C924.7 210 942.3 206 951.2 204L960 202L960 140L951.2 138C942.3 136 924.7 132 906.8 133.5C889 135 871 142 853.2 144.5C835.3 147 817.7 145 800 148C782.3 151 764.7 159 746.8 152.5C729 146 711 125 693.2 119C675.3 113 657.7 122 640 129.5C622.3 137 604.7 143 586.8 131.5C569 120 551 91 533.2 85.5C515.3 80 497.7 98 480 116C462.3 134 444.7 152 426.8 150.5C409 149 391 128 373.2 120.5C355.3 113 337.7 119 320 119C302.3 119 284.7 113 266.8 111C249 109 231 111 213.2 109.5C195.3 108 177.7 103 160 101.5C142.3 100 124.7 102 106.8 110C89 118 71 132 53.2 137C35.3 142 17.7 138 8.8 136L0 134Z" fill="#b40949"></path><path d="M0 235L8.8 227C17.7 219 35.3 203 53.2 192C71 181 89 175 106.8 172.5C124.7 170 142.3 171 160 174.5C177.7 178 195.3 184 213.2 194.5C231 205 249 220 266.8 214.5C284.7 209 302.3 183 320 172.5C337.7 162 355.3 167 373.2 177.5C391 188 409 204 426.8 215.5C444.7 227 462.3 234 480 227.5C497.7 221 515.3 201 533.2 193C551 185 569 189 586.8 192.5C604.7 196 622.3 199 640 209C657.7 219 675.3 236 693.2 234.5C711 233 729 213 746.8 211.5C764.7 210 782.3 227 800 236C817.7 245 835.3 246 853.2 252C871 258 889 269 906.8 263C924.7 257 942.3 234 951.2 222.5L960 211L960 200L951.2 202C942.3 204 924.7 208 906.8 209.5C889 211 871 210 853.2 210.5C835.3 211 817.7 213 800 208C782.3 203 764.7 191 746.8 189.5C729 188 711 197 693.2 192.5C675.3 188 657.7 170 640 163C622.3 156 604.7 160 586.8 157.5C569 155 551 146 533.2 152C515.3 158 497.7 179 480 192C462.3 205 444.7 210 426.8 198C409 186 391 157 373.2 146C355.3 135 337.7 142 320 154.5C302.3 167 284.7 185 266.8 188C249 191 231 179 213.2 165C195.3 151 177.7 135 160 133.5C142.3 132 124.7 145 106.8 150.5C89 156 71 154 53.2 165C35.3 176 17.7 200 8.8 212L0 224Z" fill="#871e56"></path><path d="M0 253L8.8 243C17.7 233 35.3 213 53.2 203.5C71 194 89 195 106.8 194.5C124.7 194 142.3 192 160 195.5C177.7 199 195.3 208 213.2 219.5C231 231 249 245 266.8 236.5C284.7 228 302.3 197 320 184.5C337.7 172 355.3 178 373.2 188C391 198 409 212 426.8 223.5C444.7 235 462.3 244 480 239.5C497.7 235 515.3 217 533.2 208C551 199 569 199 586.8 204.5C604.7 210 622.3 221 640 231.5C657.7 242 675.3 252 693.2 246C711 240 729 218 746.8 218C764.7 218 782.3 240 800 250C817.7 260 835.3 258 853.2 261.5C871 265 889 274 906.8 267.5C924.7 261 942.3 239 951.2 228L960 217L960 209L951.2 220.5C942.3 232 924.7 255 906.8 261C889 267 871 256 853.2 250C835.3 244 817.7 243 800 234C782.3 225 764.7 208 746.8 209.5C729 211 711 231 693.2 232.5C675.3 234 657.7 217 640 207C622.3 197 604.7 194 586.8 190.5C569 187 551 183 533.2 191C515.3 199 497.7 219 480 225.5C462.3 232 444.7 225 426.8 213.5C409 202 391 186 373.2 175.5C355.3 165 337.7 160 320 170.5C302.3 181 284.7 207 266.8 212.5C249 218 231 203 213.2 192.5C195.3 182 177.7 176 160 172.5C142.3 169 124.7 168 106.8 170.5C89 173 71 179 53.2 190C35.3 201 17.7 217 8.8 225L0 233Z" fill="#582752"></path><path d="M0 298L8.8 294.5C17.7 291 35.3 284 53.2 281C71 278 89 279 106.8 282C124.7 285 142.3 290 160 291C177.7 292 195.3 289 213.2 288.5C231 288 249 290 266.8 289C284.7 288 302.3 284 320 281C337.7 278 355.3 276 373.2 275.5C391 275 409 276 426.8 276C444.7 276 462.3 275 480 274C497.7 273 515.3 272 533.2 273C551 274 569 277 586.8 281C604.7 285 622.3 290 640 291.5C657.7 293 675.3 291 693.2 289C711 287 729 285 746.8 283.5C764.7 282 782.3 281 800 282C817.7 283 835.3 286 853.2 289C871 292 889 295 906.8 293C924.7 291 942.3 284 951.2 280.5L960 277L960 215L951.2 226C942.3 237 924.7 259 906.8 265.5C889 272 871 263 853.2 259.5C835.3 256 817.7 258 800 248C782.3 238 764.7 216 746.8 216C729 216 711 238 693.2 244C675.3 250 657.7 240 640 229.5C622.3 219 604.7 208 586.8 202.5C569 197 551 197 533.2 206C515.3 215 497.7 233 480 237.5C462.3 242 444.7 233 426.8 221.5C409 210 391 196 373.2 186C355.3 176 337.7 170 320 182.5C302.3 195 284.7 226 266.8 234.5C249 243 231 229 213.2 217.5C195.3 206 177.7 197 160 193.5C142.3 190 124.7 192 106.8 192.5C89 193 71 192 53.2 201.5C35.3 211 17.7 231 8.8 241L0 251Z" fill="#30243c"></path><path d="M0 301L8.8 301C17.7 301 35.3 301 53.2 301C71 301 89 301 106.8 301C124.7 301 142.3 301 160 301C177.7 301 195.3 301 213.2 301C231 301 249 301 266.8 301C284.7 301 302.3 301 320 301C337.7 301 355.3 301 373.2 301C391 301 409 301 426.8 301C444.7 301 462.3 301 480 301C497.7 301 515.3 301 533.2 301C551 301 569 301 586.8 301C604.7 301 622.3 301 640 301C657.7 301 675.3 301 693.2 301C711 301 729 301 746.8 301C764.7 301 782.3 301 800 301C817.7 301 835.3 301 853.2 301C871 301 889 301 906.8 301C924.7 301 942.3 301 951.2 301L960 301L960 275L951.2 278.5C942.3 282 924.7 289 906.8 291C889 293 871 290 853.2 287C835.3 284 817.7 281 800 280C782.3 279 764.7 280 746.8 281.5C729 283 711 285 693.2 287C675.3 289 657.7 291 640 289.5C622.3 288 604.7 283 586.8 279C569 275 551 272 533.2 271C515.3 270 497.7 271 480 272C462.3 273 444.7 274 426.8 274C409 274 391 273 373.2 273.5C355.3 274 337.7 276 320 279C302.3 282 284.7 286 266.8 287C249 288 231 286 213.2 286.5C195.3 287 177.7 290 160 289C142.3 288 124.7 283 106.8 280C89 277 71 276 53.2 279C35.3 282 17.7 289 8.8 292.5L0 296Z" fill="#1a1a1d"></path></svg>