<?xml version="1.0" standalone="no"?>
<!DOCTYPE svg PUBLIC "-//W3C//DTD SVG 20010904//EN"
 "http://www.w3.org/TR/2001/REC-SVG-20010904/DTD/svg10.dtd">
<svg version="1.0" xmlns="http://www.w3.org/2000/svg"
 width="1080.000000pt" height="1080.000000pt" viewBox="0 0 1080.000000 1080.000000"
 preserveAspectRatio="xMidYMid meet">
<metadata>
Created by potrace 1.14, written by Peter Selinger 2001-2017
</metadata>
<g transform="translate(0.000000,1080.000000) scale(0.100000,-0.100000)"
fill="#000000" stroke="none">
<path d="M0 5400 l0 -5400 5400 0 5400 0 0 5400 0 5400 -5400 0 -5400 0 0
-5400z m3087 2923 c325 -53 584 -145 831 -296 621 -379 1014 -1093 1093 -1986
15 -173 6 -605 -16 -761 -105 -755 -454 -1401 -960 -1780 -305 -228 -621 -346
-993 -370 -81 -5 -607 -10 -1169 -10 l-1023 0 0 2616 0 2615 1053 -4 c1018 -3
1056 -4 1184 -24z m5003 -2 c498 -84 878 -271 1199 -590 383 -382 628 -932
708 -1591 23 -197 23 -619 0 -810 -80 -640 -331 -1203 -712 -1598 -66 -69
-151 -150 -190 -182 -238 -194 -502 -323 -792 -386 -185 -40 -378 -45 -1463
-42 l-995 3 -3 2613 -2 2613 1057 -4 c1044 -3 1060 -4 1193 -26z"/>
<path d="M1620 5745 l0 -1906 638 4 c595 4 644 5 747 25 294 56 547 192 751
404 333 347 496 868 481 1533 -15 636 -184 1113 -511 1441 -202 202 -400 310
-691 375 -97 22 -119 23 -757 26 l-658 4 0 -1906z"/>
<path d="M6620 5745 l0 -1906 638 4 c687 5 691 5 897 62 97 27 272 110 370
174 141 93 289 242 394 399 59 88 154 287 191 402 184 564 164 1314 -49 1843
-166 414 -463 711 -844 846 -48 17 -133 41 -190 53 -99 22 -122 22 -754 26
l-653 3 0 -1906z"/>
</g>
</svg>
